<?xml version="1.0" encoding="UTF-8" standalone="no" ?>
<!DOCTYPE svg PUBLIC "-//W3C//DTD SVG 1.1//EN" "http://www.w3.org/Graphics/SVG/1.1/DTD/svg11.dtd">
<svg xmlns="http://www.w3.org/2000/svg" xmlns:xlink="http://www.w3.org/1999/xlink" version="1.1" width="500" height="500" viewBox="0 0 500 500" xml:space="preserve">
<desc>Created with Fabric.js 4.6.0</desc>
<defs>
</defs>
<g transform="matrix(1.2 0 0 1.2 309.7 210.42)" id="smNgpucnEACz8n__OuPNL"  >
<path style="stroke: none; stroke-width: 1; stroke-dasharray: none; stroke-linecap: butt; stroke-dashoffset: 0; stroke-linejoin: miter; stroke-miterlimit: 4; fill: rgb(170,175,173); fill-rule: nonzero; opacity: 1;" vector-effect="non-scaling-stroke"  transform=" translate(-325, -170)" d="M 403.318 13.736 L 446.24699999999996 56.61 C 455.053 65.404 460 77.333 460 89.77 L 460 316.551 C 460 329.501 449.488 339.99899999999997 436.522 339.99899999999997 L 213.478 339.99899999999997 C 200.512 340 190 329.503 190 316.552 L 190 23.448 C 190 10.498 200.512 0 213.478 0 L 370.11400000000003 0 C 382.568 0 394.512 4.941 403.318 13.736 z" stroke-linecap="round" />
</g>
<g transform="matrix(1.2 0 0 1.2 415.16 62.96)" id="QFJeQSnYP0dlVpW6tBbS5"  >
<path style="stroke: none; stroke-width: 1; stroke-dasharray: none; stroke-linecap: butt; stroke-dashoffset: 0; stroke-linejoin: miter; stroke-miterlimit: 4; fill: rgb(195,201,199); fill-rule: nonzero; opacity: 1;" vector-effect="non-scaling-stroke"  transform=" translate(-413.04, -46.9)" d="M 366.087 46.897 L 366.087 0 L 370.116 0 C 382.57 0 394.513 4.941 403.31899999999996 13.736 L 446.24699999999996 56.608999999999995 C 455.053 65.404 460 77.332 460 89.77 L 460 93.79299999999999 L 413.043 93.79299999999999 C 387.11 93.793 366.087 72.797 366.087 46.897 z" stroke-linecap="round" />
</g>
<g transform="matrix(1.2 0 0 1.2 418.42 302.28)" id="-wD_s7ywGal-NAuG-fzX6"  >
<path style="stroke: none; stroke-width: 1; stroke-dasharray: none; stroke-linecap: butt; stroke-dashoffset: 0; stroke-linejoin: miter; stroke-miterlimit: 4; fill: rgb(138,142,140); fill-rule: nonzero; opacity: 1;" vector-effect="non-scaling-stroke"  transform=" translate(-380, -246.69)" d="M 376.066 163.333 L 395 340 L 365 340 L 365 153.39 L 365 153.39 C 370.687 153.39 375.46 157.678 376.066 163.333 z" stroke-linecap="round" />
</g>
<g transform="matrix(1.2 0 0 1.2 247.15 242.83)" id="HiEF02H6q18BwullCOqJ8"  >
<path style="stroke: none; stroke-width: 1; stroke-dasharray: none; stroke-linecap: butt; stroke-dashoffset: 0; stroke-linejoin: miter; stroke-miterlimit: 4; fill: rgb(195,201,199); fill-rule: nonzero; opacity: 1;" vector-effect="non-scaling-stroke"  transform=" translate(-230, -230)" d="M 308.318 73.736 L 351.24699999999996 116.61000000000001 C 360.05299999999994 125.40400000000001 364.99999999999994 137.33300000000003 364.99999999999994 149.77 L 364.99999999999994 376.55100000000004 C 364.99999999999994 389.50100000000003 354.48799999999994 399.999 341.52199999999993 399.999 L 118.478 399.999 C 105.512 400 95 389.503 95 376.552 L 95 83.448 C 95 70.498 105.512 60 118.478 60 L 275.114 60 C 287.568 60 299.512 64.941 308.318 73.736 z" stroke-linecap="round" />
</g>
<g transform="matrix(1.2 0 0 1.2 352.6 95.38)" id="AQFsA2y75CKJyzU6q3XQN"  >
<path style="stroke: none; stroke-width: 1; stroke-dasharray: none; stroke-linecap: butt; stroke-dashoffset: 0; stroke-linejoin: miter; stroke-miterlimit: 4; fill: rgb(210,214,213); fill-rule: nonzero; opacity: 1;" vector-effect="non-scaling-stroke"  transform=" translate(-318.04, -106.9)" d="M 271.087 106.897 L 271.087 60 L 275.116 60 C 287.57 60 299.513 64.941 308.31899999999996 73.736 L 351.24699999999996 116.60900000000001 C 360.053 125.404 365 137.332 365 149.77 L 365 153.793 L 318.043 153.793 C 292.11 153.793 271.087 132.797 271.087 106.897 z" stroke-linecap="round" />
</g>
<g transform="matrix(1.2 0 0 1.2 360.94 334.7)" id="2IyXvY2bO1mAeV1kKNBZj"  >
<path style="stroke: none; stroke-width: 1; stroke-dasharray: none; stroke-linecap: butt; stroke-dashoffset: 0; stroke-linejoin: miter; stroke-miterlimit: 4; fill: rgb(170,175,173); fill-rule: nonzero; opacity: 1;" vector-effect="non-scaling-stroke"  transform=" translate(-285, -306.69)" d="M 281.066 223.333 L 300 400 L 270 400 L 270 213.39 L 270 213.39 C 275.687 213.39 280.46 217.678 281.066 223.333 z" stroke-linecap="round" />
</g>
<g transform="matrix(1.2 0 0 1.2 190.3 280.26)" id="Kwzcrsv6wF8HhC96iURLr"  >
<path style="stroke: none; stroke-width: 1; stroke-dasharray: none; stroke-linecap: butt; stroke-dashoffset: 0; stroke-linejoin: miter; stroke-miterlimit: 4; fill: rgb(224,224,224); fill-rule: nonzero; opacity: 1;" vector-effect="non-scaling-stroke"  transform=" translate(-135, -290)" d="M 213.318 133.736 L 256.247 176.60999999999999 C 265.053 185.404 270 197.33299999999997 270 209.76999999999998 L 270 436.551 C 270 449.501 259.488 459.99899999999997 246.522 459.99899999999997 L 23.478 459.99899999999997 C 10.512 460 0 449.503 0 436.552 L 0 143.448 C 0 130.498 10.512 120 23.478 120 L 180.114 120 C 192.568 120 204.512 124.941 213.318 133.736 z" stroke-linecap="round" />
</g>
<g transform="matrix(1.2 0 0 1.2 295.76 132.81)" id="fcYdIAgDkLSgpRk5m7tcH"  >
<path style="stroke: none; stroke-width: 1; stroke-dasharray: none; stroke-linecap: butt; stroke-dashoffset: 0; stroke-linejoin: miter; stroke-miterlimit: 4; fill: rgb(242,242,242); fill-rule: nonzero; opacity: 1;" vector-effect="non-scaling-stroke"  transform=" translate(-223.04, -166.9)" d="M 176.087 166.897 L 176.087 120 L 180.11599999999999 120 C 192.57 120 204.51299999999998 124.941 213.319 133.736 L 256.24699999999996 176.60899999999998 C 265.053 185.404 270 197.332 270 209.77 L 270 213.793 L 223.043 213.793 C 197.11 213.793 176.087 192.797 176.087 166.897 z" stroke-linecap="round" />
</g>
<g transform="matrix(2.41 0 0 1.2 182.75 222.34)" id="o22636zdOV3urgWTjiLtX"  >
<path style="stroke: none; stroke-width: 1; stroke-dasharray: none; stroke-linecap: butt; stroke-dashoffset: 0; stroke-linejoin: miter; stroke-miterlimit: 4; fill: rgb(0,0,0); fill-rule: nonzero; opacity: 1;" vector-effect="non-scaling-stroke"  transform=" translate(-388, -211.6)" d="M 424.4 212.8 C 424.4 214.4 422.79999999999995 216 421.2 216 L 354.79999999999995 216 C 353.19999999999993 216 351.59999999999997 214.4 351.59999999999997 212.8 L 351.59999999999997 210.4 C 351.59999999999997 208.8 353.2 207.20000000000002 354.79999999999995 207.20000000000002 L 421.19999999999993 207.20000000000002 C 422.79999999999995 207.20000000000002 424.3999999999999 208.8 424.3999999999999 210.4 L 424.3999999999999 212.8 z" stroke-linecap="round" />
</g>
<g transform="matrix(2.41 0 0 1.2 182.64 334.7)" id="ydyQd6k-yGG7bu7wjbbjS"  >
<path style="stroke: none; stroke-width: 1; stroke-dasharray: none; stroke-linecap: butt; stroke-dashoffset: 0; stroke-linejoin: miter; stroke-miterlimit: 4; fill: rgb(0,0,0); fill-rule: nonzero; opacity: 1;" vector-effect="non-scaling-stroke"  transform=" translate(-388, -211.6)" d="M 424.4 212.8 C 424.4 214.4 422.79999999999995 216 421.2 216 L 354.79999999999995 216 C 353.19999999999993 216 351.59999999999997 214.4 351.59999999999997 212.8 L 351.59999999999997 210.4 C 351.59999999999997 208.8 353.2 207.20000000000002 354.79999999999995 207.20000000000002 L 421.19999999999993 207.20000000000002 C 422.79999999999995 207.20000000000002 424.3999999999999 208.8 424.3999999999999 210.4 L 424.3999999999999 212.8 z" stroke-linecap="round" />
</g>
<g transform="matrix(2.41 0 0 1.2 182.64 386.09)" id="P2_F9z6eiNm5Zo46rTLIm"  >
<path style="stroke: none; stroke-width: 1; stroke-dasharray: none; stroke-linecap: butt; stroke-dashoffset: 0; stroke-linejoin: miter; stroke-miterlimit: 4; fill: rgb(0,0,0); fill-rule: nonzero; opacity: 1;" vector-effect="non-scaling-stroke"  transform=" translate(0, 0)" d="M 36.4 1.2 C 36.4 2.8 34.8 4.4 33.199999999999996 4.4 L -33.20000000000001 4.4 C -34.80000000000001 4.4 -36.40000000000001 2.8000000000000003 -36.40000000000001 1.2000000000000002 L -36.40000000000001 -1.1999999999999997 C -36.40000000000001 -2.8 -34.80000000000001 -4.4 -33.20000000000001 -4.4 L 33.199999999999996 -4.4 C 34.8 -4.4 36.4 -2.8000000000000003 36.4 -1.2000000000000002 L 36.4 1.1999999999999997 z" stroke-linecap="round" />
</g>
<g transform="matrix(2.41 0 0 1.2 182.64 280.26)" id="41j7FMyRgfCuGpLACgtsy"  >
<path style="stroke: none; stroke-width: 1; stroke-dasharray: none; stroke-linecap: butt; stroke-dashoffset: 0; stroke-linejoin: miter; stroke-miterlimit: 4; fill: rgb(0,0,0); fill-rule: nonzero; opacity: 1;" vector-effect="non-scaling-stroke"  transform=" translate(-388, -211.6)" d="M 424.4 212.8 C 424.4 214.4 422.79999999999995 216 421.2 216 L 354.79999999999995 216 C 353.19999999999993 216 351.59999999999997 214.4 351.59999999999997 212.8 L 351.59999999999997 210.4 C 351.59999999999997 208.8 353.2 207.20000000000002 354.79999999999995 207.20000000000002 L 421.19999999999993 207.20000000000002 C 422.79999999999995 207.20000000000002 424.3999999999999 208.8 424.3999999999999 210.4 L 424.3999999999999 212.8 z" stroke-linecap="round" />
</g>
</svg>