<?xml version="1.0" encoding="UTF-8" standalone="no" ?>
<!DOCTYPE svg PUBLIC "-//W3C//DTD SVG 1.1//EN" "http://www.w3.org/Graphics/SVG/1.1/DTD/svg11.dtd">
<svg xmlns="http://www.w3.org/2000/svg" xmlns:xlink="http://www.w3.org/1999/xlink" version="1.1" width="500" height="500" viewBox="0 0 500 500" xml:space="preserve">
<desc>Created with Fabric.js 4.6.0</desc>
<defs>
</defs>
<g transform="matrix(1 0 0 1 242.01 257.6)" id="t7aXN4_he3YZacp5cca-m"  >
<path style="stroke: none; stroke-width: 1; stroke-dasharray: none; stroke-linecap: butt; stroke-dashoffset: 0; stroke-linejoin: miter; stroke-miterlimit: 4; fill: rgb(31,197,201); fill-rule: nonzero; opacity: 1;" vector-effect="non-scaling-stroke"  transform=" translate(-240.41, -256)" d="M 392.4 456.8 C 392.4 479.2 378 496 355.59999999999997 496 L 112.4 496 C 90 496 88.4 479.2 88.4 456.8 L 88.4 57.6 C 88.4 36 90 16 112.4 16 L 371.6 16 C 394 16 392.40000000000003 36 392.40000000000003 57.6 L 392.40000000000003 456.8 z" stroke-linecap="round" />
</g>
<g transform="matrix(1 0 0 1 350 293.6)" id="poRspNltojK12BwgD7VWl"  >
<path style="stroke: none; stroke-width: 1; stroke-dasharray: none; stroke-linecap: butt; stroke-dashoffset: 0; stroke-linejoin: miter; stroke-miterlimit: 4; fill: rgb(249,217,61); fill-rule: nonzero; opacity: 1;" vector-effect="non-scaling-stroke"  transform=" translate(-348.4, -292)" d="M 232.4 88 L 232.4 496 L 464.4 496 L 464.4 153.60000000000002 L 395.59999999999997 88.00000000000003 z" stroke-linecap="round" />
</g>
<g transform="matrix(1 0 0 1 350 293.6)" id="tKp4bFQjxICwjE3YQaqMa"  >
<polyline style="stroke: none; stroke-width: 1; stroke-dasharray: none; stroke-linecap: butt; stroke-dashoffset: 0; stroke-linejoin: miter; stroke-miterlimit: 4; fill: rgb(226,185,71); fill-rule: nonzero; opacity: 1;" vector-effect="non-scaling-stroke"  points="4,-204 -116,-204 -116,204 116,204 " />
</g>
<g transform="matrix(1 0 0 1 389.6 213.2)" id="XC-3ZozrpLPgKdgPXowd9"  >
<path style="stroke: none; stroke-width: 1; stroke-dasharray: none; stroke-linecap: butt; stroke-dashoffset: 0; stroke-linejoin: miter; stroke-miterlimit: 4; fill: rgb(242,235,158); fill-rule: nonzero; opacity: 1;" vector-effect="non-scaling-stroke"  transform=" translate(-388, -211.6)" d="M 424.4 212.8 C 424.4 214.4 422.79999999999995 216 421.2 216 L 354.79999999999995 216 C 353.19999999999993 216 351.59999999999997 214.4 351.59999999999997 212.8 L 351.59999999999997 210.4 C 351.59999999999997 208.8 353.2 207.20000000000002 354.79999999999995 207.20000000000002 L 421.19999999999993 207.20000000000002 C 422.79999999999995 207.20000000000002 424.3999999999999 208.8 424.3999999999999 210.4 L 424.3999999999999 212.8 z" stroke-linecap="round" />
</g>
<g transform="matrix(1 0 0 1 389.6 253.2)" id="tXfXkifLEGC7ySb9p7CzB"  >
<path style="stroke: none; stroke-width: 1; stroke-dasharray: none; stroke-linecap: butt; stroke-dashoffset: 0; stroke-linejoin: miter; stroke-miterlimit: 4; fill: rgb(242,235,158); fill-rule: nonzero; opacity: 1;" vector-effect="non-scaling-stroke"  transform=" translate(-388, -251.6)" d="M 424.4 252.8 C 424.4 254.4 422.79999999999995 256 421.2 256 L 354.79999999999995 256 C 353.19999999999993 256 351.59999999999997 254.4 351.59999999999997 252.8 L 351.59999999999997 250.4 C 351.59999999999997 248.8 353.2 247.20000000000002 354.79999999999995 247.20000000000002 L 421.19999999999993 247.20000000000002 C 422.79999999999995 247.20000000000002 424.3999999999999 248.8 424.3999999999999 250.4 L 424.3999999999999 252.8 z" stroke-linecap="round" />
</g>
<g transform="matrix(1 0 0 1 389.6 293.2)" id="HF51j0THKjDCXGkyWZWYF"  >
<path style="stroke: none; stroke-width: 1; stroke-dasharray: none; stroke-linecap: butt; stroke-dashoffset: 0; stroke-linejoin: miter; stroke-miterlimit: 4; fill: rgb(242,235,158); fill-rule: nonzero; opacity: 1;" vector-effect="non-scaling-stroke"  transform=" translate(-388, -291.6)" d="M 424.4 292.8 C 424.4 294.40000000000003 422.79999999999995 296 421.2 296 L 354.79999999999995 296 C 353.19999999999993 296 351.59999999999997 294.4 351.59999999999997 292.8 L 351.59999999999997 290.40000000000003 C 351.59999999999997 288.8 353.2 287.20000000000005 354.79999999999995 287.20000000000005 L 421.19999999999993 287.20000000000005 C 422.79999999999995 287.20000000000005 424.3999999999999 288.80000000000007 424.3999999999999 290.40000000000003 L 424.3999999999999 292.8 z" stroke-linecap="round" />
</g>
<g transform="matrix(1 0 0 1 389.6 333.2)" id="0RJJ5Awt4m_8Nw0dBr71F"  >
<path style="stroke: none; stroke-width: 1; stroke-dasharray: none; stroke-linecap: butt; stroke-dashoffset: 0; stroke-linejoin: miter; stroke-miterlimit: 4; fill: rgb(242,235,158); fill-rule: nonzero; opacity: 1;" vector-effect="non-scaling-stroke"  transform=" translate(-388, -331.6)" d="M 424.4 332.8 C 424.4 334.40000000000003 422.79999999999995 336 421.2 336 L 354.79999999999995 336 C 353.19999999999993 336 351.59999999999997 334.4 351.59999999999997 332.8 L 351.59999999999997 330.40000000000003 C 351.59999999999997 328.8 353.2 327.20000000000005 354.79999999999995 327.20000000000005 L 421.19999999999993 327.20000000000005 C 422.79999999999995 327.20000000000005 424.3999999999999 328.80000000000007 424.3999999999999 330.40000000000003 L 424.3999999999999 332.8 z" stroke-linecap="round" />
</g>
<g transform="matrix(1 0 0 1 389.6 373.2)" id="3JD5FAuTTpACSkSgjW9fF"  >
<path style="stroke: none; stroke-width: 1; stroke-dasharray: none; stroke-linecap: butt; stroke-dashoffset: 0; stroke-linejoin: miter; stroke-miterlimit: 4; fill: rgb(242,235,158); fill-rule: nonzero; opacity: 1;" vector-effect="non-scaling-stroke"  transform=" translate(-388, -371.6)" d="M 424.4 372.8 C 424.4 374.40000000000003 422.79999999999995 376 421.2 376 L 354.79999999999995 376 C 353.19999999999993 376 351.59999999999997 374.4 351.59999999999997 372.8 L 351.59999999999997 370.40000000000003 C 351.59999999999997 368.8 353.2 367.20000000000005 354.79999999999995 367.20000000000005 L 421.19999999999993 367.20000000000005 C 422.79999999999995 367.20000000000005 424.3999999999999 368.80000000000007 424.3999999999999 370.40000000000003 L 424.3999999999999 372.8 z" stroke-linecap="round" />
</g>
<g transform="matrix(1 0 0 1 389.6 413.2)" id="ZaYeosJecvzGUlXq-EfXx"  >
<path style="stroke: none; stroke-width: 1; stroke-dasharray: none; stroke-linecap: butt; stroke-dashoffset: 0; stroke-linejoin: miter; stroke-miterlimit: 4; fill: rgb(242,235,158); fill-rule: nonzero; opacity: 1;" vector-effect="non-scaling-stroke"  transform=" translate(-388, -411.6)" d="M 424.4 412.8 C 424.4 414.40000000000003 422.79999999999995 416 421.2 416 L 354.79999999999995 416 C 353.19999999999993 416 351.59999999999997 414.4 351.59999999999997 412.8 L 351.59999999999997 410.40000000000003 C 351.59999999999997 408.8 353.2 407.20000000000005 354.79999999999995 407.20000000000005 L 421.19999999999993 407.20000000000005 C 422.79999999999995 407.20000000000005 424.3999999999999 408.80000000000007 424.3999999999999 410.40000000000003 L 424.3999999999999 412.8 z" stroke-linecap="round" />
</g>
<g transform="matrix(1 0 0 1 194 249.6)" id="sqkVcfI0SFh1-NuaPZ_E7"  >
<path style="stroke: none; stroke-width: 1; stroke-dasharray: none; stroke-linecap: butt; stroke-dashoffset: 0; stroke-linejoin: miter; stroke-miterlimit: 4; fill: rgb(31,197,201); fill-rule: nonzero; opacity: 1;" vector-effect="non-scaling-stroke"  transform=" translate(-192.4, -248)" d="M 352.4 455.2 C 352.4 478.4 335.59999999999997 496 312.4 496 L 59.6 496 C 36.400000000000006 496 32.400000000000006 478.4 32.400000000000006 455.2 L 32.400000000000006 40.8 C 32.400000000000006 17.599999999999998 36.400000000000006 0 59.60000000000001 0 L 312.40000000000003 0 C 335.6 0 352.40000000000003 17.6 352.40000000000003 40.8 L 352.40000000000003 455.2 z" stroke-linecap="round" />
</g>
<g transform="matrix(1 0 0 1 206 250)" id="D4ksjSpjJj1Zsvd86fTsp"  >
<path style="stroke: none; stroke-width: 1; stroke-dasharray: none; stroke-linecap: butt; stroke-dashoffset: 0; stroke-linejoin: miter; stroke-miterlimit: 4; fill: rgb(14,148,170); fill-rule: nonzero; opacity: 1;" vector-effect="non-scaling-stroke"  transform=" translate(-204.4, -248.4)" d="M 56.4 0 L 312.4 0 C 335.59999999999997 0 352.4 17.6 352.4 40.8 L 352.4 456 C 352.4 479.2 335.59999999999997 496.8 312.4 496.8 L 56.39999999999998 496.8" stroke-linecap="round" />
</g>
<g transform="matrix(1 0 0 1 333.6 250)" id="sme3XBMJIWvMI9mhmStG9"  >
<path style="stroke: none; stroke-width: 1; stroke-dasharray: none; stroke-linecap: butt; stroke-dashoffset: 0; stroke-linejoin: miter; stroke-miterlimit: 4; fill: rgb(5,138,160); fill-rule: nonzero; opacity: 1;" vector-effect="non-scaling-stroke"  transform=" translate(-332, -248.4)" d="M 311.6 0 C 334.8 0 352.40000000000003 17.6 352.40000000000003 40.8 L 352.40000000000003 456 C 352.40000000000003 479.2 335.6 496.8 312.40000000000003 496.8" stroke-linecap="round" />
</g>
<g transform="matrix(1 0 0 1 145.2 87.2)" id="EKBYUv9OPjkBTm-38DiZv"  >
<path style="stroke: none; stroke-width: 1; stroke-dasharray: none; stroke-linecap: butt; stroke-dashoffset: 0; stroke-linejoin: miter; stroke-miterlimit: 4; fill: rgb(31,197,201); fill-rule: nonzero; opacity: 1;" vector-effect="non-scaling-stroke"  transform=" translate(-7.2, -7.2)" d="M 0 7.2 C 0 3.2235500000000004 3.22355 0 7.2 0 C 11.176449999999999 0 14.4 3.22355 14.4 7.2 C 14.4 11.176449999999999 11.17645 14.4 7.2 14.4 C 3.2235500000000004 14.4 0 11.17645 0 7.2 z" stroke-linecap="round" />
</g>
<g transform="matrix(1 0 0 1 196.4 87.2)" id="zKzwbemKorocGkKSxWo9c"  >
<path style="stroke: none; stroke-width: 1; stroke-dasharray: none; stroke-linecap: butt; stroke-dashoffset: 0; stroke-linejoin: miter; stroke-miterlimit: 4; fill: rgb(31,197,201); fill-rule: nonzero; opacity: 1;" vector-effect="non-scaling-stroke"  transform=" translate(-7.2, -7.2)" d="M 0 7.2 C 0 3.2235500000000004 3.22355 0 7.2 0 C 11.176449999999999 0 14.4 3.22355 14.4 7.2 C 14.4 11.176449999999999 11.17645 14.4 7.2 14.4 C 3.2235500000000004 14.4 0 11.17645 0 7.2 z" stroke-linecap="round" />
</g>
<g transform="matrix(1 0 0 1 246.8 87.2)" id="tmZnwGsbsHQI8WAtiVxIV"  >
<path style="stroke: none; stroke-width: 1; stroke-dasharray: none; stroke-linecap: butt; stroke-dashoffset: 0; stroke-linejoin: miter; stroke-miterlimit: 4; fill: rgb(31,197,201); fill-rule: nonzero; opacity: 1;" vector-effect="non-scaling-stroke"  transform=" translate(-7.2, -7.2)" d="M 0 7.2 C 0 3.2235500000000004 3.22355 0 7.2 0 C 11.176449999999999 0 14.4 3.22355 14.4 7.2 C 14.4 11.176449999999999 11.17645 14.4 7.2 14.4 C 3.2235500000000004 14.4 0 11.17645 0 7.2 z" stroke-linecap="round" />
</g>
<g transform="matrix(1 0 0 1 431.6 187.6)" id="sFri7OwPwWGYOloQ4RaIr"  >
<path style="stroke: none; stroke-width: 1; stroke-dasharray: none; stroke-linecap: butt; stroke-dashoffset: 0; stroke-linejoin: miter; stroke-miterlimit: 4; fill: rgb(226,185,71); fill-rule: nonzero; opacity: 1;" vector-effect="non-scaling-stroke"  transform=" translate(-430, -186)" d="M 464.4 220 L 464.4 152 L 395.59999999999997 152 z" stroke-linecap="round" />
</g>
<g transform="matrix(1 0 0 1 431.6 121.6)" id="IjmUgk5DPftWfblc4iRIl"  >
<path style="stroke: none; stroke-width: 1; stroke-dasharray: none; stroke-linecap: butt; stroke-dashoffset: 0; stroke-linejoin: miter; stroke-miterlimit: 4; fill: rgb(242,235,158); fill-rule: nonzero; opacity: 1;" vector-effect="non-scaling-stroke"  transform=" translate(-430, -120)" d="M 395.6 88 L 395.6 152 L 464.40000000000003 152 z" stroke-linecap="round" />
</g>
</svg>