<?xml version="1.0"?>
<svg xmlns="http://www.w3.org/2000/svg" xmlns:xlink="http://www.w3.org/1999/xlink" xmlns:svgjs="http://svgjs.com/svgjs" version="1.1" width="512" height="512" x="0" y="0" viewBox="0 0 509.866 509.866" style="enable-background:new 0 0 512 512" xml:space="preserve" class=""><g><g xmlns="http://www.w3.org/2000/svg"><g><path d="m416.609 509.866h-323.352c-13.002 0-23.542-10.54-23.542-23.542v-462.782c-.001-13.002 10.54-23.542 23.542-23.542h323.353c13.002 0 23.542 10.54 23.542 23.542v462.781c0 13.003-10.54 23.543-23.543 23.543z" fill="#838383" data-original="#407093" style="" class=""/></g><path d="m418.703.098c.061.69.098 1.388.098 2.094v462.781c0 13.002-10.54 23.542-23.542 23.542h-323.353c-.706 0-1.403-.037-2.094-.098 1.06 12.021 11.149 21.449 23.445 21.449h323.353c13.002 0 23.542-10.54 23.542-23.542v-462.782c0-12.296-9.428-22.384-21.449-23.444z" fill="#6c6b69" data-original="#365e7d" style="" class=""/><g><path d="m206.184 48.946-79.327 79.327-31.539-31.539c-7.81-7.81-7.81-20.474 0-28.284l51.042-51.042c7.81-7.81 20.474-7.81 28.284 0z" fill="#6c6b69" data-original="#365e7d" style="" class=""/></g><g><path d="m174.645 17.407c-7.81-7.81-20.474-7.81-28.284 0l-15.714 15.714c7.81-7.81 20.474-7.81 28.284 0l31.539 31.539 15.714-15.714z" fill="#4c4c4b" data-original="#2b4d66" style="" class=""/></g><g><path d="m192.725 284.179v-107.157h-80.386v255.61c0 20.987 17.013 38 38 38h209.188c20.987 0 38-17.013 38-38v-128.453c0-11.046-8.954-20-20-20z" fill="#6c6b69" data-original="#365e7d" style="" class=""/></g><g><g><path d="m377.527 284.179h-10.646v117.807c0 20.987-17.013 38-38 38h-209.187c-2.303 0-4.555-.216-6.745-.609 3.185 17.767 18.708 31.255 37.391 31.255h209.188c20.987 0 38-17.013 38-38v-128.453c-.001-11.046-8.956-20-20.001-20z" fill="#4c4c4b" data-original="#2b4d66" style="" class=""/></g></g><g><path d="m262.043 424.421c-29.741-6.966-52.549-31.936-56.272-62.794-.611-5.065-4.835-8.913-9.936-8.913h-49.521c-5.523 0-10 4.477-10 10v97.919c0 5.523 4.477 10 10 10h113.438c5.523 0 10-4.477 10-10v-26.486c-.001-4.64-3.193-8.669-7.709-9.726z" fill="#edeced" data-original="#efecef" style="" class=""/></g><g><g><path d="m262.043 424.421c-5.25-1.23-10.278-3.031-15.029-5.316v18.79c0 5.523-4.477 10-10 10h-100.701v12.737c0 5.523 4.477 10 10 10h113.438c5.523 0 10-4.477 10-10v-26.486c0-4.639-3.192-8.667-7.708-9.725z" fill="#d1d1d1" data-original="#dddaec" style="" class=""/></g></g><g><path d="m120.912 43.235c-5.893 5.893-7.038 15.033-2.782 22.198l24.165 40.673 41.487-41.487-40.672-24.165c-7.165-4.257-16.305-3.112-22.198 2.781z" fill="#d1d1d1" data-original="#dddaec" style="" class=""/></g><g><path d="m124.987 53.623 43.78 26.011 15.016-15.016-40.673-24.164c-7.165-4.257-16.305-3.112-22.198 2.781-2.176 2.176-3.699 4.795-4.548 7.593 2.977.279 5.924 1.191 8.623 2.795z" fill="#cbcbcb" data-original="#d5c6e4" style="" class=""/></g><g><path d="m388.954 43.235c5.893 5.893 7.038 15.033 2.781 22.198l-24.165 40.673-41.487-41.487 40.673-24.165c7.165-4.257 16.305-3.112 22.198 2.781z" fill="#d1d1d1" data-original="#dddaec" style="" class=""/></g><g><path d="m388.954 43.235c-2.492-2.492-5.566-4.124-8.824-4.869-.18 3.255-1.117 6.497-2.868 9.445l-25.338 42.647 15.647 15.647 24.165-40.673c4.257-7.164 3.111-16.304-2.782-22.197z" fill="#cbcbcb" data-original="#d5c6e4" style="" class=""/></g><g><path d="m235.983 313.407h-89.466c-8.248 0-14.935-6.687-14.935-14.935v-59.69h104.401z" fill="#cbcbcb" data-original="#d5c6e4" style="" class=""/></g><g><path d="m131.582 281.983v16.49c0 8.248 6.687 14.935 14.935 14.935h89.466v-16.49h-89.466c-8.248 0-14.935-6.687-14.935-14.935z" fill="#bfbfbf" data-original="#beb9dd" style="" class=""/></g><g><g><path d="m397.527 177.022c0 78.752-63.841 142.594-142.594 142.594s-142.594-63.841-142.594-142.594 63.842-142.593 142.594-142.593c32.922 0 63.237 11.157 87.373 29.896 0 0 12.134 13.678 17.882 20.097 4.271 4.769 9.225 7.333 12.831 12.647 15.47 22.802 24.508 50.322 24.508 79.953z" fill="#edeced" data-original="#efecef" style="" class=""/></g><g><path d="m341.954 64.064c18.578 24.079 29.636 54.257 29.636 87.021 0 78.752-63.841 142.594-142.594 142.594-32.765 0-62.942-11.058-87.021-29.636 26.075 33.796 66.97 55.572 112.958 55.572 78.752 0 142.594-63.841 142.594-142.594 0-45.986-21.776-86.882-55.573-112.957z" fill="#d1d1d1" data-original="#dddaec" style="" class=""/></g><g><path d="m254.933 114.585c-34.483 0-62.438 27.954-62.438 62.438s27.954 62.438 62.438 62.438 62.438-27.954 62.438-62.438-27.955-62.438-62.438-62.438zm0 93.656c-17.242 0-31.219-13.977-31.219-31.219s13.977-31.219 31.219-31.219 31.219 13.977 31.219 31.219-13.977 31.219-31.219 31.219z" fill="#d1d1d1" data-original="#dddaec" style="" class=""/></g><g><g><path d="m290.437 125.671c6.984 10.082 11.086 22.311 11.086 35.504 0 34.483-27.954 62.438-62.437 62.438-13.193 0-25.422-4.102-35.504-11.086 11.27 16.27 30.061 26.934 51.351 26.934 34.483 0 62.438-27.954 62.438-62.438 0-21.291-10.664-40.082-26.934-51.352z" fill="#cbcbcb" data-original="#d5c6e4" style="" class=""/></g></g></g><g><circle cx="254.933" cy="177.022" fill="#bfbfbf" r="10.125" data-original="#beb9dd" style="" class=""/></g><g><circle cx="167.624" cy="408.771" fill="#bfbfbf" r="10.125" data-original="#beb9dd" style="" class=""/></g><g><circle cx="199.941" cy="441.087" fill="#bfbfbf" r="10.125" data-original="#beb9dd" style="" class=""/></g><g><circle cx="102.214" cy="480.088" fill="#bfbfbf" r="10.125" data-original="#beb9dd" style="" class=""/></g><g><circle cx="407.652" cy="480.088" fill="#bfbfbf" r="10.125" data-original="#beb9dd" style="" class=""/></g><g><circle cx="102.214" cy="30.242" fill="#bfbfbf" r="10.125" data-original="#beb9dd" style="" class=""/></g><g><circle cx="407.652" cy="30.242" fill="#bfbfbf" r="10.125" data-original="#beb9dd" style="" class=""/></g><g><path d="m300.751 352.714h83.401v30.184h-83.401z" fill="#edeced" data-original="#efecef" style="" class=""/></g><g><path d="m300.751 370.991h83.401v11.906h-83.401z" fill="#d1d1d1" data-original="#dddaec" style="" class=""/></g><g><path d="m303.851 395.712h-13.918c-2.209 0-4-1.791-4-4v-34.998c0-2.209 1.791-4 4-4h34.998c2.209 0 4 1.791 4 4v13.918c0 13.851-11.229 25.08-25.08 25.08z" fill="#cbcbcb" data-original="#d5c6e4" style="" class=""/></g><g><path d="m324.931 352.714h-8.094v5.824c0 13.852-11.229 25.08-25.08 25.08h-5.824v8.094c0 2.209 1.791 4 4 4h13.918c13.852 0 25.08-11.229 25.08-25.08v-13.918c0-2.21-1.791-4-4-4z" fill="#bfbfbf" data-original="#beb9dd" style="" class=""/></g><g><path d="m379.609 395.712h13.918c2.209 0 4-1.791 4-4v-34.998c0-2.209-1.791-4-4-4h-34.998c-2.209 0-4 1.791-4 4v13.918c0 13.851 11.228 25.08 25.08 25.08z" fill="#cbcbcb" data-original="#d5c6e4" style="" class=""/></g><g><path d="m393.527 352.714h-9.095v25.904c0 2.209-1.791 4-4 4h-13.918c-3.531 0-6.889-.733-9.936-2.049 3.849 8.908 12.71 15.144 23.031 15.144h13.918c2.209 0 4-1.791 4-4v-34.998c0-2.211-1.791-4.001-4-4.001z" fill="#bfbfbf" data-original="#beb9dd" style="" class=""/></g><g><path d="m209.628 373.713.845 4.686c1.232 6.833 5.719 12.635 12.023 15.545l17.143 7.916c11.523 5.321 25.112-.562 29.117-12.605l44.897-134.993c1.481-4.452-1.205-9.21-5.783-10.242-3.424-.772-6.949.798-8.665 3.86l-44.819 79.976c-7.446 13.287-19.618 23.286-34.097 28.01-7.512 2.452-12.063 10.071-10.661 17.847z" fill="#cbcbcb" data-original="#d5c6e4" style="" class=""/></g><path d="m307.87 244.02c-3.424-.772-6.949.798-8.665 3.86l-5.025 8.967-39.392 118.44c-4.005 12.043-17.594 17.926-29.117 12.605l-14.485-6.689c1.82 5.595 5.89 10.238 11.31 12.74l17.143 7.916c11.523 5.321 25.112-.562 29.117-12.605l44.897-134.993c1.48-4.451-1.206-9.209-5.783-10.241z" fill="#bfbfbf" data-original="#beb9dd" style="" class=""/><g><circle cx="242.808" cy="374.213" fill="#edeced" r="9.845" data-original="#efecef" style="" class=""/></g><g><path d="m351.891 333.06c-8.279 0-14.99-6.711-14.99-14.99v-32.403c0-8.279 6.711-14.99 14.99-14.99 8.279 0 14.99 6.711 14.99 14.99v32.403c0 8.279-6.711 14.99-14.99 14.99z" fill="#939393" data-original="#e28086" style="" class=""/></g><g><path d="m353.118 270.741c.289 1.163.46 2.372.46 3.624v32.403c0 8.279-6.711 14.99-14.99 14.99-.414 0-.821-.029-1.226-.062 1.623 6.524 7.503 11.366 14.53 11.366 8.279 0 14.99-6.711 14.99-14.99v-32.403c-.001-7.865-6.061-14.303-13.764-14.928z" fill="#807d7d" data-original="#dd636e" style="" class=""/></g></g></g></svg>
