<?xml version="1.0" encoding="UTF-8" standalone="no" ?>
<!DOCTYPE svg PUBLIC "-//W3C//DTD SVG 1.1//EN" "http://www.w3.org/Graphics/SVG/1.1/DTD/svg11.dtd">
<svg xmlns="http://www.w3.org/2000/svg" xmlns:xlink="http://www.w3.org/1999/xlink" version="1.1" width="500" height="500" viewBox="0 0 500 500" xml:space="preserve">
<desc>Created with Fabric.js 4.6.0</desc>
<defs>
</defs>
<g transform="matrix(8 0 0 8 251.16 330)" id="Dp_K60XBjZ3n7d8JDEeDS"  >
<path style="stroke: none; stroke-width: 1; stroke-dasharray: none; stroke-linecap: butt; stroke-dashoffset: 0; stroke-linejoin: miter; stroke-miterlimit: 4; fill: rgb(152,118,197); fill-rule: nonzero; opacity: 1;" vector-effect="non-scaling-stroke"  transform=" translate(-32.15, -42)" d="M 14.296 25.248 L 18.771 59.260999999999996 C 18.902 60.25599999999999 19.75 60.99999999999999 20.754 60.99999999999999 L 43.246 60.99999999999999 C 44.25 60.99999999999999 45.098 60.25599999999999 45.229 59.260999999999996 L 48.684 33 L 50 23 L 16.543999999999997 23 z" stroke-linecap="round" />
</g>
<g transform="matrix(8 0 0 8 250 330)" id="JFsCAsRCBe5QdCTfRBtKK"  >
<path style="stroke: none; stroke-width: 1; stroke-dasharray: none; stroke-linecap: butt; stroke-dashoffset: 0; stroke-linejoin: miter; stroke-miterlimit: 4; fill: rgb(242,248,255); fill-rule: nonzero; opacity: 1;" vector-effect="non-scaling-stroke"  transform=" translate(-32, -42)" d="M 30 31 L 30 53 C 30 54.105 30.895 55 32 55 C 33.105000000000004 55 34 54.105 34 53 L 34 31 C 34 29.895 33.105 29 32 29 C 30.895000000000003 29 30 29.895 30 31 z" stroke-linecap="round" />
</g>
<g transform="matrix(8 0 0 8 186 330)" id="LL1Kkjr4wW-4f1vmd_y33"  >
<path style="stroke: none; stroke-width: 1; stroke-dasharray: none; stroke-linecap: butt; stroke-dashoffset: 0; stroke-linejoin: miter; stroke-miterlimit: 4; fill: rgb(242,248,255); fill-rule: nonzero; opacity: 1;" vector-effect="non-scaling-stroke"  transform=" translate(-24, -42)" d="M 22 31 L 22 53 C 22 54.105 22.895 55 24 55 C 25.105 55 26 54.105 26 53 L 26 31 C 26 29.895 25.105 29 24 29 C 22.895 29 22 29.895 22 31 z" stroke-linecap="round" />
</g>
<g transform="matrix(8 0 0 8 314 330)" id="kX1V2baitZQblv9JvTI_p"  >
<path style="stroke: none; stroke-width: 1; stroke-dasharray: none; stroke-linecap: butt; stroke-dashoffset: 0; stroke-linejoin: miter; stroke-miterlimit: 4; fill: rgb(242,248,255); fill-rule: nonzero; opacity: 1;" vector-effect="non-scaling-stroke"  transform=" translate(-40, -42)" d="M 38 31 L 38 53 C 38 54.105 38.895 55 40 55 C 41.105 55 42 54.105 42 53 L 42 31 C 42 29.895 41.105 29 40 29 C 38.895 29 38 29.895 38 31 z" stroke-linecap="round" />
</g>
<g transform="matrix(8 0 0 8 270.14 122)" id="5eaY_Tn6m8IIBE6ndV4BS"  >
<path style="stroke: none; stroke-width: 1; stroke-dasharray: none; stroke-linecap: butt; stroke-dashoffset: 0; stroke-linejoin: miter; stroke-miterlimit: 4; fill: rgb(100,78,129); fill-rule: nonzero; opacity: 1;" vector-effect="non-scaling-stroke"  transform=" translate(-34.5, -16)" d="M 30 17 L 34 19 L 39 19 L 37 14 L 33 13 z" stroke-linecap="round" />
</g>
<g transform="matrix(8 0 0 8 374 102)" id="-9_ydE4IoLNVZv71mORLW"  >
<path style="stroke: none; stroke-width: 1; stroke-dasharray: none; stroke-linecap: butt; stroke-dashoffset: 0; stroke-linejoin: miter; stroke-miterlimit: 4; fill: rgb(100,78,129); fill-rule: nonzero; opacity: 1;" vector-effect="non-scaling-stroke"  transform=" translate(-47.5, -13.5)" d="M 48 10 L 43 11 L 43 13 L 44 17 L 52 16 L 49 12 z" stroke-linecap="round" />
</g>
<g transform="matrix(8 0 0 8 142.49 133.98)" id="YhU8qriVCn44r22QrMTwX"  >
<path style="stroke: none; stroke-width: 1; stroke-dasharray: none; stroke-linecap: butt; stroke-dashoffset: 0; stroke-linejoin: miter; stroke-miterlimit: 4; fill: rgb(152,118,197); fill-rule: nonzero; opacity: 1;" vector-effect="non-scaling-stroke"  transform=" translate(-18.57, -17.57)" d="M 30.172 3.716 C 29.391000000000002 2.935 28.125 2.935 27.344 3.716 L 4.716000000000001 26.343 C 3.935000000000001 27.124 3.935000000000001 28.39 4.716000000000001 29.171 L 7.5440000000000005 32 L 33 6.5440000000000005 z" stroke-linecap="round" />
</g>
<g transform="matrix(8 0 0 8 233.64 330)" id="jW7a8u5gHOG4Npeykhad7"  >
<path style="stroke: none; stroke-width: 1; stroke-dasharray: none; stroke-linecap: butt; stroke-dashoffset: 0; stroke-linejoin: miter; stroke-miterlimit: 4; fill: rgb(48,48,48); fill-rule: nonzero; opacity: 0.12;" vector-effect="non-scaling-stroke"  transform=" translate(-29.96, -42)" d="M 45.229 59.261 L 45.62 56.288000000000004 C 32.786 51.781000000000006 23.932 39.22500000000001 24.723 24.983000000000004 L 24.833 23.000000000000004 L 16.543999999999997 23.000000000000004 L 14.295999999999996 25.248000000000005 L 18.770999999999994 59.261 C 18.901999999999994 60.256 19.749999999999993 61 20.753999999999994 61 L 43.245999999999995 61 C 44.24999999999999 61 45.09799999999999 60.256 45.22899999999999 59.261 z" stroke-linecap="round" />
</g>
<g transform="matrix(8 0 0 8 149.06 134.48)" id="3CSP8Xq9aPhe6HsdKoqlC"  >
<path style="stroke: none; stroke-width: 1; stroke-dasharray: none; stroke-linecap: butt; stroke-dashoffset: 0; stroke-linejoin: miter; stroke-miterlimit: 4; fill: rgb(48,48,48); fill-rule: nonzero; opacity: 0.12;" vector-effect="non-scaling-stroke"  transform=" translate(-19.39, -17.57)" d="M 27.029 8.971 L 5.7719999999999985 30.228 L 7.543999999999999 32 L 33 6.5440000000000005 L 30.172 3.7160000000000006 C 29.391000000000002 2.9350000000000005 28.125 2.9350000000000005 27.344 3.7160000000000006 L 27.03 4.03 C 28.394000000000002 5.394 28.394000000000002 7.606 27.029 8.971 z" stroke-linecap="round" />
</g>
<g transform="matrix(8 0 0 8 377.76 102)" id="uJXwWNJsIrJtWaZWydYTD"  >
<path style="stroke: none; stroke-width: 1; stroke-dasharray: none; stroke-linecap: butt; stroke-dashoffset: 0; stroke-linejoin: miter; stroke-miterlimit: 4; fill: rgb(48,48,48); fill-rule: nonzero; opacity: 0.12;" vector-effect="non-scaling-stroke"  transform=" translate(-47.97, -13.5)" d="M 49 12 L 48 10 L 46.182 10.364 L 47 12 L 50 16 L 43.939 16.758 L 44 17 L 52 16 z" stroke-linecap="round" />
</g>
<g transform="matrix(8 0 0 8 278.18 122)" id="S5IktzYT6hmJ4x23EHrir"  >
<path style="stroke: none; stroke-width: 1; stroke-dasharray: none; stroke-linecap: butt; stroke-dashoffset: 0; stroke-linejoin: miter; stroke-miterlimit: 4; fill: rgb(48,48,48); fill-rule: nonzero; opacity: 0.12;" vector-effect="non-scaling-stroke"  transform=" translate(-35.53, -16)" d="M 35 15 L 36.6 19 L 39 19 L 37 14 L 33 13 L 32.053 14.263 z" stroke-linecap="round" />
</g>
<g transform="matrix(8 0 0 8 110.26 102.24)" id="A391TYzNOfXkc7-PyUNaa"  >
<path style="stroke: none; stroke-width: 1; stroke-dasharray: none; stroke-linecap: butt; stroke-dashoffset: 0; stroke-linejoin: miter; stroke-miterlimit: 4; fill: rgb(118,101,140); fill-rule: nonzero; opacity: 1;" vector-effect="non-scaling-stroke"  transform=" translate(-14.53, -13.53)" d="M 10.373 20.686 L 8.251999999999999 18.565 C 7.081999999999999 17.396 7.081999999999999 15.492 8.251999999999999 14.322000000000001 L 15.322999999999999 7.251000000000001 C 16.491999999999997 6.081000000000001 18.395 6.080000000000001 19.566 7.251000000000001 L 21.686999999999998 9.372000000000002 L 20.272999999999996 10.786000000000001 L 18.151999999999997 8.665000000000001 C 17.761999999999997 8.275 17.127 8.276000000000002 16.737 8.665000000000001 L 9.665999999999999 15.736 C 9.275999999999998 16.126 9.275999999999998 16.76 9.665999999999999 17.151 L 11.786999999999999 19.272 z" stroke-linecap="round" />
</g>
<g transform="matrix(8 0 0 8 354 18)" id="DKLXaRlzNC8ZWu5v25Zmv"  >
<path style="stroke: none; stroke-width: 1; stroke-dasharray: none; stroke-linecap: butt; stroke-dashoffset: 0; stroke-linejoin: miter; stroke-miterlimit: 4; fill: rgb(100,78,129); fill-rule: nonzero; opacity: 1;" vector-effect="non-scaling-stroke"  transform=" translate(-45, -3)" d="M 44 2 L 46 2 L 46 4 L 44 4 z" stroke-linecap="round" />
</g>
<g transform="matrix(8 0 0 8 454 56.36)" id="buh44yzMOF76onyVP2P1r"  >
<path style="stroke: none; stroke-width: 1; stroke-dasharray: none; stroke-linecap: butt; stroke-dashoffset: 0; stroke-linejoin: miter; stroke-miterlimit: 4; fill: rgb(100,78,129); fill-rule: nonzero; opacity: 1;" vector-effect="non-scaling-stroke"  transform=" translate(-57.5, -7.79)" d="M 54.022 9.793 L 52.803 8.206999999999999 C 55.47 6.156999999999999 58.891999999999996 5.358999999999999 62.196 6.018999999999998 L 61.803999999999995 7.979999999999999 C 59.06999999999999 7.434999999999999 56.233 8.094999999999999 54.02199999999999 9.793 z" stroke-linecap="round" />
</g>
<g transform="matrix(8 0 0 8 458 98)" id="ek5e2pkh55HklUtpFFPAU"  >
<path style="stroke: none; stroke-width: 1; stroke-dasharray: none; stroke-linecap: butt; stroke-dashoffset: 0; stroke-linejoin: miter; stroke-miterlimit: 4; fill: rgb(100,78,129); fill-rule: nonzero; opacity: 1;" vector-effect="non-scaling-stroke"  transform=" translate(-58, -13)" d="M 57 12 L 59 12 L 59 14 L 57 14 z" stroke-linecap="round" />
</g>
<g transform="matrix(8 0 0 8 398 30)" id="PXvKszbnxkNDUFVyjahsv"  >
<path style="stroke: none; stroke-width: 1; stroke-dasharray: none; stroke-linecap: butt; stroke-dashoffset: 0; stroke-linejoin: miter; stroke-miterlimit: 4; fill: rgb(100,78,129); fill-rule: nonzero; opacity: 1;" vector-effect="non-scaling-stroke"  transform=" translate(-50.5, -4.5)" d="M 50 7 L 48 7 C 48 4.243 50.243 2 53 2 L 53 4 C 51.346000000000004 4 50 5.346 50 7 z" stroke-linecap="round" />
</g>
<g transform="matrix(8 0 0 8 250 330)" id="szweGif6Xijl06XG4wWSb"  >
<path style="stroke: none; stroke-width: 1; stroke-dasharray: none; stroke-linecap: butt; stroke-dashoffset: 0; stroke-linejoin: miter; stroke-miterlimit: 4; fill: rgb(242,248,255); fill-rule: nonzero; opacity: 1;" vector-effect="non-scaling-stroke"  transform=" translate(-32, -42)" d="M 30 31 L 30 53 C 30 54.105 30.895 55 32 55 C 33.105000000000004 55 34 54.105 34 53 L 34 31 C 34 29.895 33.105 29 32 29 C 30.895000000000003 29 30 29.895 30 31 z" stroke-linecap="round" />
</g>
<g transform="matrix(8 0 0 8 186 330)" id="IL_F0Wk9Ou42Drr785SgV"  >
<path style="stroke: none; stroke-width: 1; stroke-dasharray: none; stroke-linecap: butt; stroke-dashoffset: 0; stroke-linejoin: miter; stroke-miterlimit: 4; fill: rgb(242,248,255); fill-rule: nonzero; opacity: 1;" vector-effect="non-scaling-stroke"  transform=" translate(-24, -42)" d="M 22 31 L 22 53 C 22 54.105 22.895 55 24 55 C 25.105 55 26 54.105 26 53 L 26 31 C 26 29.895 25.105 29 24 29 C 22.895 29 22 29.895 22 31 z" stroke-linecap="round" />
</g>
<g transform="matrix(8 0 0 8 314 330)" id="IIFVS4B4rdZLs_V5Cb_FS"  >
<path style="stroke: none; stroke-width: 1; stroke-dasharray: none; stroke-linecap: butt; stroke-dashoffset: 0; stroke-linejoin: miter; stroke-miterlimit: 4; fill: rgb(242,248,255); fill-rule: nonzero; opacity: 1;" vector-effect="non-scaling-stroke"  transform=" translate(-40, -42)" d="M 38 31 L 38 53 C 38 54.105 38.895 55 40 55 C 41.105 55 42 54.105 42 53 L 42 31 C 42 29.895 41.105 29 40 29 C 38.895 29 38 29.895 38 31 z" stroke-linecap="round" />
</g>
<g transform="matrix(8 0 0 8 233.64 330)" id="VL3ixPbq8X09kPP7xTnfR"  >
<path style="stroke: none; stroke-width: 1; stroke-dasharray: none; stroke-linecap: butt; stroke-dashoffset: 0; stroke-linejoin: miter; stroke-miterlimit: 4; fill: rgb(48,48,48); fill-rule: nonzero; opacity: 0.12;" vector-effect="non-scaling-stroke"  transform=" translate(-29.96, -42)" d="M 45.229 59.261 L 45.62 56.288000000000004 C 32.786 51.781000000000006 23.932 39.22500000000001 24.723 24.983000000000004 L 24.833 23.000000000000004 L 16.543999999999997 23.000000000000004 L 14.295999999999996 25.248000000000005 L 18.770999999999994 59.261 C 18.901999999999994 60.256 19.749999999999993 61 20.753999999999994 61 L 43.245999999999995 61 C 44.24999999999999 61 45.09799999999999 60.256 45.22899999999999 59.261 z" stroke-linecap="round" />
</g>
<g transform="matrix(8 0 0 8 149.06 134.48)" id="4WPN7fCFGkEDIE3vvzagH"  >
<path style="stroke: none; stroke-width: 1; stroke-dasharray: none; stroke-linecap: butt; stroke-dashoffset: 0; stroke-linejoin: miter; stroke-miterlimit: 4; fill: rgb(48,36,64); fill-rule: nonzero; opacity: 0.12;" vector-effect="non-scaling-stroke"  transform=" translate(-19.39, -17.57)" d="M 27.029 8.971 L 5.7719999999999985 30.228 L 7.543999999999999 32 L 33 6.5440000000000005 L 30.172 3.7160000000000006 C 29.391000000000002 2.9350000000000005 28.125 2.9350000000000005 27.344 3.7160000000000006 L 27.03 4.03 C 28.394000000000002 5.394 28.394000000000002 7.606 27.029 8.971 z" stroke-linecap="round" />
</g>
<g transform="matrix(8 0 0 8 377.76 102)" id="jeJm2b62tKp-7zVTIE941"  >
<path style="stroke: none; stroke-width: 1; stroke-dasharray: none; stroke-linecap: butt; stroke-dashoffset: 0; stroke-linejoin: miter; stroke-miterlimit: 4; fill: rgb(48,48,48); fill-rule: nonzero; opacity: 0.12;" vector-effect="non-scaling-stroke"  transform=" translate(-47.97, -13.5)" d="M 49 12 L 48 10 L 46.182 10.364 L 47 12 L 50 16 L 43.939 16.758 L 44 17 L 52 16 z" stroke-linecap="round" />
</g>
<g transform="matrix(8 0 0 8 278.18 122)" id="JGFgwPqo2sGp4IHKp3Uc2"  >
<path style="stroke: none; stroke-width: 1; stroke-dasharray: none; stroke-linecap: butt; stroke-dashoffset: 0; stroke-linejoin: miter; stroke-miterlimit: 4; fill: rgb(48,48,48); fill-rule: nonzero; opacity: 0.12;" vector-effect="non-scaling-stroke"  transform=" translate(-35.53, -16)" d="M 35 15 L 36.6 19 L 39 19 L 37 14 L 33 13 L 32.053 14.263 z" stroke-linecap="round" />
</g>
</svg>