<?xml version="1.0"?>
<svg xmlns="http://www.w3.org/2000/svg" xmlns:xlink="http://www.w3.org/1999/xlink" xmlns:svgjs="http://svgjs.com/svgjs" version="1.1" width="512" height="512" x="0" y="0" viewBox="0 0 64 64" style="enable-background:new 0 0 512 512" xml:space="preserve" class=""><g><path xmlns="http://www.w3.org/2000/svg" d="m14.296 25.248 4.475 34.013c.131.995.979 1.739 1.983 1.739h22.492c1.004 0 1.852-.744 1.983-1.739l3.455-26.261 1.316-10h-33.456z" fill="#b5b5b5" data-original="#57a5ff" style="" class=""/><path xmlns="http://www.w3.org/2000/svg" d="m30 31v22c0 1.105.895 2 2 2s2-.895 2-2v-22c0-1.105-.895-2-2-2s-2 .895-2 2z" fill="#f2f8ff" data-original="#f2f8ff" style="" class=""/><path xmlns="http://www.w3.org/2000/svg" d="m22 31v22c0 1.105.895 2 2 2s2-.895 2-2v-22c0-1.105-.895-2-2-2s-2 .895-2 2z" fill="#f2f8ff" data-original="#f2f8ff" style="" class=""/><path xmlns="http://www.w3.org/2000/svg" d="m38 31v22c0 1.105.895 2 2 2s2-.895 2-2v-22c0-1.105-.895-2-2-2s-2 .895-2 2z" fill="#f2f8ff" data-original="#f2f8ff" style="" class=""/><path xmlns="http://www.w3.org/2000/svg" d="m30 17 4 2h5l-2-5-4-1z" fill="#7a7a7a" data-original="#004fa8" style="" class=""/><path xmlns="http://www.w3.org/2000/svg" d="m48 10-5 1v2l1 4 8-1-3-4z" fill="#7a7a7a" data-original="#004fa8" style="" class=""/><path xmlns="http://www.w3.org/2000/svg" d="m30.172 3.716c-.781-.781-2.047-.781-2.828 0l-22.628 22.627c-.781.781-.781 2.047 0 2.828l2.828 2.829 25.456-25.456z" fill="#b5b5b5" data-original="#57a5ff" style="" class=""/><path xmlns="http://www.w3.org/2000/svg" d="m45.229 59.261.391-2.973c-12.834-4.507-21.688-17.063-20.897-31.305l.11-1.983h-8.289l-2.248 2.248 4.475 34.013c.131.995.979 1.739 1.983 1.739h22.492c1.004 0 1.852-.744 1.983-1.739z" fill="#303030" opacity=".12" data-original="#303030" style="" class=""/><path xmlns="http://www.w3.org/2000/svg" d="m27.029 8.971-21.257 21.257 1.772 1.772 25.456-25.456-2.828-2.828c-.781-.781-2.047-.781-2.828 0l-.314.314c1.364 1.364 1.364 3.576-.001 4.941z" fill="#303030" opacity=".12" data-original="#303030" style="" class=""/><path xmlns="http://www.w3.org/2000/svg" d="m49 12-1-2-1.818.364.818 1.636 3 4-6.061.758.061.242 8-1z" fill="#303030" opacity=".12" data-original="#303030" style="" class=""/><path xmlns="http://www.w3.org/2000/svg" d="m35 15 1.6 4h2.4l-2-5-4-1-.947 1.263z" fill="#303030" opacity=".12" data-original="#303030" style="" class=""/><path xmlns="http://www.w3.org/2000/svg" d="m10.373 20.686-2.121-2.121c-1.17-1.169-1.17-3.073 0-4.243l7.071-7.071c1.169-1.17 3.072-1.171 4.243 0l2.121 2.121-1.414 1.414-2.121-2.121c-.39-.39-1.025-.389-1.415 0l-7.071 7.071c-.39.39-.39 1.024 0 1.415l2.121 2.121z" fill="#b5b5b5" data-original="#57a5ff" style="" class=""/><g xmlns="http://www.w3.org/2000/svg" fill="#004fa8"><path d="m44 2h2v2h-2z" fill="#7a7a7a" data-original="#004fa8" style="" class=""/><path d="m54.022 9.793-1.219-1.586c2.667-2.05 6.089-2.848 9.393-2.188l-.392 1.961c-2.734-.545-5.571.115-7.782 1.813z" fill="#7a7a7a" data-original="#004fa8" style="" class=""/><path d="m57 12h2v2h-2z" fill="#7a7a7a" data-original="#004fa8" style="" class=""/><path d="m50 7h-2c0-2.757 2.243-5 5-5v2c-1.654 0-3 1.346-3 3z" fill="#7a7a7a" data-original="#004fa8" style="" class=""/></g></g></svg>
