<?xml version="1.0" encoding="UTF-8" standalone="no" ?>
<!DOCTYPE svg PUBLIC "-//W3C//DTD SVG 1.1//EN" "http://www.w3.org/Graphics/SVG/1.1/DTD/svg11.dtd">
<svg xmlns="http://www.w3.org/2000/svg" xmlns:xlink="http://www.w3.org/1999/xlink" version="1.1" width="500" height="500" viewBox="0 0 500 500" xml:space="preserve">
<desc>Created with Fabric.js 4.6.0</desc>
<defs>
</defs>
<g transform="matrix(0 -2.47 1.66 0 185.3 250)" id="Rm9wr-eiQzsVlFAG3K0NK"  >
<path style="stroke: none; stroke-width: 1; stroke-dasharray: none; stroke-linecap: butt; stroke-dashoffset: 0; stroke-linejoin: miter; stroke-miterlimit: 4; fill: rgb(255,255,255); fill-rule: nonzero; opacity: 1;" vector-effect="non-scaling-stroke"  transform=" translate(-89.57, -61.81)" d="M 138.592 123.612 C 155.62900000000002 123.612 162.572 111.63 154.096 96.851 L 104.908 11.082999999999998 C 96.431 -3.695000000000002 82.7 -3.695000000000002 74.231 11.082999999999998 L 25.036 96.851 C 16.562 111.629 23.503 123.612 40.539 123.612 L 138.592 123.612 z" stroke-linecap="round" />
</g>
<g transform="matrix(1.97 0 0 2.5 348.61 102.51)" id="Q6pyPYEmM2oztHPsJ3hUH"  >
<path style="stroke: rgb(168,144,62); stroke-width: 0; stroke-dasharray: none; stroke-linecap: butt; stroke-dashoffset: 0; stroke-linejoin: miter; stroke-miterlimit: 4; fill: rgb(255,255,255); fill-rule: nonzero; opacity: 1;" vector-effect="non-scaling-stroke"  transform=" translate(0, 0)" d="M 0 -8.5 C 4.692 -8.5 8.5 -4.692 8.5 0 C 8.5 4.692 4.692 8.5 0 8.5 C -4.692 8.5 -8.5 4.692 -8.5 0 C -8.5 -4.692 -4.692 -8.5 0 -8.5 z" stroke-linecap="round" />
</g>
<g transform="matrix(2.02 0 0 2.31 348.16 399.13)" id="IMYkefDCRKtlR4UOAtPgY"  >
<path style="stroke: rgb(168,144,62); stroke-width: 0; stroke-dasharray: none; stroke-linecap: butt; stroke-dashoffset: 0; stroke-linejoin: miter; stroke-miterlimit: 4; fill: rgb(255,255,255); fill-rule: nonzero; opacity: 1;" vector-effect="non-scaling-stroke"  transform=" translate(0, 0)" d="M 0 -8.5 C 4.692 -8.5 8.5 -4.692 8.5 0 C 8.5 4.692 4.692 8.5 0 8.5 C -4.692 8.5 -8.5 4.692 -8.5 0 C -8.5 -4.692 -4.692 -8.5 0 -8.5 z" stroke-linecap="round" />
</g>
<g transform="matrix(1.76 0 0 18.48 348.61 250.82)" id="a2qqVvrjEc0AYYDcmXeSd"  >
<path style="stroke: none; stroke-width: 1; stroke-dasharray: none; stroke-linecap: butt; stroke-dashoffset: 0; stroke-linejoin: miter; stroke-miterlimit: 4; fill: rgb(255,255,255); fill-rule: nonzero; opacity: 1;" vector-effect="non-scaling-stroke"  transform=" translate(-12, -12)" d="M 3 20 L 21 20 C 21.552284749830793 20 22 19.552284749830793 22 19 L 22 5 C 22 4.447715250169207 21.552284749830793 4 21 4 L 3 4 C 2.4477152501692068 4 2 4.447715250169207 2 5 L 2 19 C 2 19.552284749830793 2.4477152501692068 20 3 20 z" stroke-linecap="round" />
</g>
</svg>