<?xml version="1.0" encoding="UTF-8" standalone="no" ?>
<!DOCTYPE svg PUBLIC "-//W3C//DTD SVG 1.1//EN" "http://www.w3.org/Graphics/SVG/1.1/DTD/svg11.dtd">
<svg xmlns="http://www.w3.org/2000/svg" xmlns:xlink="http://www.w3.org/1999/xlink" version="1.1" width="500" height="500" viewBox="0 0 500 500" xml:space="preserve">
<desc>Created with Fabric.js 4.6.0</desc>
<defs>
</defs>
<g transform="matrix(0.96 0 0 0.96 250 250)" id="Fvdqg10uivv0reO49mIUE"  >
<path style="stroke: none; stroke-width: 1; stroke-dasharray: none; stroke-linecap: butt; stroke-dashoffset: 0; stroke-linejoin: miter; stroke-miterlimit: 4; fill: rgb(152,103,197); fill-rule: nonzero; opacity: 1;" vector-effect="non-scaling-stroke"  transform=" translate(-254.93, -254.93)" d="M 416.609 509.866 L 93.257 509.866 C 80.25500000000001 509.866 69.715 499.32599999999996 69.715 486.32399999999996 L 69.715 23.541999999999973 C 69.714 10.539999999999973 80.255 -2.842170943040401e-14 93.257 -2.842170943040401e-14 L 416.61 -2.842170943040401e-14 C 429.612 -2.842170943040401e-14 440.15200000000004 10.53999999999997 440.15200000000004 23.541999999999973 L 440.15200000000004 486.323 C 440.15200000000004 499.32599999999996 429.612 509.866 416.60900000000004 509.866 z" stroke-linecap="round" />
</g>
<g transform="matrix(0.96 0 0 0.96 250.05 250.05)" id="ZW2GzBHSa9hxwGdnio6DH"  >
<path style="stroke: none; stroke-width: 1; stroke-dasharray: none; stroke-linecap: butt; stroke-dashoffset: 0; stroke-linejoin: miter; stroke-miterlimit: 4; fill: rgb(128,83,170); fill-rule: nonzero; opacity: 1;" vector-effect="non-scaling-stroke"  transform=" translate(-254.98, -254.98)" d="M 418.703 0.098 C 418.76399999999995 0.7879999999999999 418.801 1.486 418.801 2.1919999999999997 L 418.801 464.973 C 418.801 477.975 408.26099999999997 488.515 395.259 488.515 L 71.906 488.515 C 71.2 488.515 70.503 488.478 69.81200000000001 488.417 C 70.87200000000001 500.438 80.96100000000001 509.866 93.257 509.866 L 416.61 509.866 C 429.612 509.866 440.15200000000004 499.32599999999996 440.15200000000004 486.32399999999996 L 440.15200000000004 23.541999999999973 C 440.15200000000004 11.245999999999974 430.72400000000005 1.1579999999999728 418.70300000000003 0.09799999999997411 z" stroke-linecap="round" />
</g>
<g transform="matrix(0.96 0 0 0.96 146.7 71.56)" id="raUljc5X4G9oMY4k_8HDe"  >
<path style="stroke: none; stroke-width: 1; stroke-dasharray: none; stroke-linecap: butt; stroke-dashoffset: 0; stroke-linejoin: miter; stroke-miterlimit: 4; fill: rgb(117,71,159); fill-rule: nonzero; opacity: 1;" vector-effect="non-scaling-stroke"  transform=" translate(-147.82, -69.91)" d="M 206.184 48.946 L 126.857 128.273 L 95.318 96.734 C 87.508 88.92399999999999 87.508 76.25999999999999 95.318 68.44999999999999 L 146.36 17.407999999999987 C 154.17000000000002 9.597999999999988 166.834 9.597999999999988 174.644 17.407999999999987 z" stroke-linecap="round" />
</g>
<g transform="matrix(0.96 0 0 0.96 166.56 40.88)" id="-9x95ljF2d0Hw5m0umUiz"  >
<path style="stroke: none; stroke-width: 1; stroke-dasharray: none; stroke-linecap: butt; stroke-dashoffset: 0; stroke-linejoin: miter; stroke-miterlimit: 4; fill: rgb(102,59,142); fill-rule: nonzero; opacity: 1;" vector-effect="non-scaling-stroke"  transform=" translate(-168.42, -38.1)" d="M 174.645 17.407 C 166.835 9.597000000000001 154.17100000000002 9.597000000000001 146.36100000000002 17.407 L 130.64700000000002 33.121 C 138.45700000000002 25.311000000000003 151.121 25.311000000000003 158.931 33.121 L 190.47000000000003 64.66 L 206.18400000000003 48.946 z" stroke-linecap="round" />
</g>
<g transform="matrix(0.96 0 0 0.96 250 316.44)" id="AunKsl_aHD51vS5AcID__"  >
<path style="stroke: none; stroke-width: 1; stroke-dasharray: none; stroke-linecap: butt; stroke-dashoffset: 0; stroke-linejoin: miter; stroke-miterlimit: 4; fill: rgb(98,62,131); fill-rule: nonzero; opacity: 1;" vector-effect="non-scaling-stroke"  transform=" translate(-254.93, -323.83)" d="M 192.725 284.179 L 192.725 177.022 L 112.339 177.022 L 112.339 432.632 C 112.339 453.619 129.352 470.632 150.339 470.632 L 359.527 470.632 C 380.514 470.632 397.527 453.619 397.527 432.632 L 397.527 304.179 C 397.527 293.133 388.573 284.179 377.527 284.179 z" stroke-linecap="round" />
</g>
<g transform="matrix(0.96 0 0 0.96 250.3 368.12)" id="e-RG025hN0svA5bP1esVm"  >
<path style="stroke: none; stroke-width: 1; stroke-dasharray: none; stroke-linecap: butt; stroke-dashoffset: 0; stroke-linejoin: miter; stroke-miterlimit: 4; fill: rgb(83,48,115); fill-rule: nonzero; opacity: 1;" vector-effect="non-scaling-stroke"  transform=" translate(-255.24, -377.41)" d="M 377.527 284.179 L 366.881 284.179 L 366.881 401.986 C 366.881 422.973 349.868 439.986 328.881 439.986 L 119.69399999999996 439.986 C 117.39099999999996 439.986 115.13899999999995 439.77 112.94899999999996 439.377 C 116.13399999999996 457.144 131.65699999999995 470.632 150.33999999999995 470.632 L 359.5279999999999 470.632 C 380.51499999999993 470.632 397.5279999999999 453.619 397.5279999999999 432.632 L 397.5279999999999 304.179 C 397.52699999999993 293.133 388.5719999999999 284.179 377.52699999999993 284.179 z" stroke-linecap="round" />
</g>
<g transform="matrix(0.96 0 0 0.96 199.94 401.17)" id="TX5X3ztDBZvYHWzF-IQ31"  >
<path style="stroke: none; stroke-width: 1; stroke-dasharray: none; stroke-linecap: butt; stroke-dashoffset: 0; stroke-linejoin: miter; stroke-miterlimit: 4; fill: rgb(239,236,239); fill-rule: nonzero; opacity: 1;" vector-effect="non-scaling-stroke"  transform=" translate(-203.03, -411.67)" d="M 262.043 424.421 C 232.30200000000002 417.455 209.494 392.485 205.77100000000002 361.627 C 205.16000000000003 356.562 200.936 352.714 195.835 352.714 L 146.31400000000002 352.714 C 140.79100000000003 352.714 136.31400000000002 357.191 136.31400000000002 362.714 L 136.31400000000002 460.633 C 136.31400000000002 466.156 140.79100000000003 470.633 146.31400000000002 470.633 L 259.752 470.633 C 265.27500000000003 470.633 269.752 466.156 269.752 460.633 L 269.752 434.147 C 269.75100000000003 429.507 266.559 425.478 262.043 424.421 z" stroke-linecap="round" />
</g>
<g transform="matrix(0.96 0 0 0.96 199.94 433.18)" id="2bei7ZSTqHW8Cp9WRB2P8"  >
<path style="stroke: none; stroke-width: 1; stroke-dasharray: none; stroke-linecap: butt; stroke-dashoffset: 0; stroke-linejoin: miter; stroke-miterlimit: 4; fill: rgb(219,216,233); fill-rule: nonzero; opacity: 1;" vector-effect="non-scaling-stroke"  transform=" translate(-203.03, -444.87)" d="M 262.043 424.421 C 256.793 423.191 251.76500000000001 421.39 247.014 419.105 L 247.014 437.89500000000004 C 247.014 443.41800000000006 242.537 447.89500000000004 237.014 447.89500000000004 L 136.31300000000002 447.89500000000004 L 136.31300000000002 460.63200000000006 C 136.31300000000002 466.1550000000001 140.79000000000002 470.63200000000006 146.31300000000002 470.63200000000006 L 259.75100000000003 470.63200000000006 C 265.27400000000006 470.63200000000006 269.75100000000003 466.1550000000001 269.75100000000003 460.63200000000006 L 269.75100000000003 434.1460000000001 C 269.75100000000003 429.50700000000006 266.559 425.4790000000001 262.043 424.42100000000005 z" stroke-linecap="round" />
</g>
<g transform="matrix(0.96 0 0 0.96 148.48 73.57)" id="YR1V6ZnkWi7Zfqv9Cb3Zk"  >
<path style="stroke: none; stroke-width: 1; stroke-dasharray: none; stroke-linecap: butt; stroke-dashoffset: 0; stroke-linejoin: miter; stroke-miterlimit: 4; fill: rgb(219,216,233); fill-rule: nonzero; opacity: 1;" vector-effect="non-scaling-stroke"  transform=" translate(-149.68, -72)" d="M 120.912 43.235 C 115.019 49.128 113.87400000000001 58.268 118.13000000000001 65.43299999999999 L 142.29500000000002 106.106 L 183.782 64.619 L 143.11 40.454 C 135.94500000000002 36.197 126.805 37.342 120.912 43.235 z" stroke-linecap="round" />
</g>
<g transform="matrix(0.96 0 0 0.96 148.87 60.81)" id="NSXr6xSmVIZ4YL5p4mabE"  >
<path style="stroke: none; stroke-width: 1; stroke-dasharray: none; stroke-linecap: butt; stroke-dashoffset: 0; stroke-linejoin: miter; stroke-miterlimit: 4; fill: rgb(200,191,209); fill-rule: nonzero; opacity: 1;" vector-effect="non-scaling-stroke"  transform=" translate(-150.07, -58.77)" d="M 124.987 53.623 L 168.767 79.634 L 183.783 64.618 L 143.10999999999999 40.45399999999999 C 135.945 36.196999999999996 126.80499999999998 37.34199999999999 120.91199999999998 43.23499999999999 C 118.73599999999998 45.410999999999994 117.21299999999998 48.029999999999994 116.36399999999998 50.82799999999999 C 119.34099999999998 51.10699999999999 122.28799999999998 52.01899999999999 124.98699999999998 53.62299999999999 z" stroke-linecap="round" />
</g>
<g transform="matrix(0.96 0 0 0.96 351.5 73.57)" id="b0WKv-QuxPcxnEMcvDu5i"  >
<path style="stroke: none; stroke-width: 1; stroke-dasharray: none; stroke-linecap: butt; stroke-dashoffset: 0; stroke-linejoin: miter; stroke-miterlimit: 4; fill: rgb(219,216,233); fill-rule: nonzero; opacity: 1;" vector-effect="non-scaling-stroke"  transform=" translate(-360.19, -72)" d="M 388.954 43.235 C 394.847 49.128 395.992 58.268 391.735 65.43299999999999 L 367.57 106.106 L 326.08299999999997 64.619 L 366.756 40.454 C 373.921 36.197 383.061 37.342 388.95399999999995 43.235 z" stroke-linecap="round" />
</g>
<g transform="matrix(0.96 0 0 0.96 363.97 73.8)" id="__tHZyopP84StzSfjL3KO"  >
<path style="stroke: none; stroke-width: 1; stroke-dasharray: none; stroke-linecap: butt; stroke-dashoffset: 0; stroke-linejoin: miter; stroke-miterlimit: 4; fill: rgb(200,191,209); fill-rule: nonzero; opacity: 1;" vector-effect="non-scaling-stroke"  transform=" translate(-373.11, -72.24)" d="M 388.954 43.235 C 386.462 40.743 383.38800000000003 39.111 380.13 38.366 C 379.95 41.621 379.013 44.863 377.262 47.811 L 351.924 90.458 L 367.57099999999997 106.105 L 391.736 65.432 C 395.993 58.268 394.847 49.128 388.954 43.235 z" stroke-linecap="round" />
</g>
<g transform="matrix(0.96 0 0 0.96 181.38 270.41)" id="oEwd-KpYpUeme-RC6iEaK"  >
<path style="stroke: none; stroke-width: 1; stroke-dasharray: none; stroke-linecap: butt; stroke-dashoffset: 0; stroke-linejoin: miter; stroke-miterlimit: 4; fill: rgb(200,191,209); fill-rule: nonzero; opacity: 1;" vector-effect="non-scaling-stroke"  transform=" translate(-183.78, -276.09)" d="M 235.983 313.407 L 146.517 313.407 C 138.269 313.407 131.582 306.71999999999997 131.582 298.472 L 131.582 238.78199999999998 L 235.983 238.78199999999998 z" stroke-linecap="round" />
</g>
<g transform="matrix(0.96 0 0 0.96 181.38 291.24)" id="P45cutcWSvZJB8-MYc_SO"  >
<path style="stroke: none; stroke-width: 1; stroke-dasharray: none; stroke-linecap: butt; stroke-dashoffset: 0; stroke-linejoin: miter; stroke-miterlimit: 4; fill: rgb(214,210,217); fill-rule: nonzero; opacity: 1;" vector-effect="non-scaling-stroke"  transform=" translate(-183.78, -297.7)" d="M 131.582 281.983 L 131.582 298.473 C 131.582 306.721 138.269 313.408 146.517 313.408 L 235.983 313.408 L 235.983 296.918 L 146.517 296.918 C 138.269 296.918 131.582 290.231 131.582 281.983 z" stroke-linecap="round" />
</g>
<g transform="matrix(0.96 0 0 0.96 250 174.86)" id="jzs3nGSurbSLobZu8hNc4"  >
<path style="stroke: none; stroke-width: 1; stroke-dasharray: none; stroke-linecap: butt; stroke-dashoffset: 0; stroke-linejoin: miter; stroke-miterlimit: 4; fill: rgb(239,236,239); fill-rule: nonzero; opacity: 1;" vector-effect="non-scaling-stroke"  transform=" translate(-254.93, -177.02)" d="M 397.527 177.022 C 397.527 255.774 333.686 319.616 254.933 319.616 C 176.18 319.616 112.339 255.77499999999998 112.339 177.022 C 112.339 98.269 176.18099999999998 34.429 254.933 34.429 C 287.855 34.429 318.17 45.586 342.306 64.325 C 342.306 64.325 354.44 78.003 360.188 84.422 C 364.459 89.191 369.413 91.755 373.019 97.069 C 388.48900000000003 119.87100000000001 397.527 147.39100000000002 397.527 177.022 z" stroke-linecap="round" />
</g>
<g transform="matrix(0.96 0 0 0.96 264.29 189.15)" id="Yyluka7_FmgNazb9WdvD9"  >
<path style="stroke: none; stroke-width: 1; stroke-dasharray: none; stroke-linecap: butt; stroke-dashoffset: 0; stroke-linejoin: miter; stroke-miterlimit: 4; fill: rgb(219,216,233); fill-rule: nonzero; opacity: 1;" vector-effect="non-scaling-stroke"  transform=" translate(-269.75, -191.84)" d="M 341.954 64.064 C 360.532 88.143 371.59000000000003 118.321 371.59000000000003 151.08499999999998 C 371.59000000000003 229.837 307.749 293.679 228.99600000000004 293.679 C 196.23100000000005 293.679 166.05400000000003 282.621 141.97500000000002 264.04299999999995 C 168.05 297.83899999999994 208.94500000000002 319.61499999999995 254.93300000000002 319.61499999999995 C 333.685 319.61499999999995 397.52700000000004 255.77399999999994 397.52700000000004 177.02099999999996 C 397.52700000000004 131.03499999999997 375.75100000000003 90.13899999999995 341.95400000000006 64.06399999999996 z" stroke-linecap="round" />
</g>
<g transform="matrix(0.96 0 0 0.96 250 174.86)" id="7fTi2NZQGsbEq9RwLPKmN"  >
<path style="stroke: none; stroke-width: 1; stroke-dasharray: none; stroke-linecap: butt; stroke-dashoffset: 0; stroke-linejoin: miter; stroke-miterlimit: 4; fill: rgb(219,216,233); fill-rule: nonzero; opacity: 1;" vector-effect="non-scaling-stroke"  transform=" translate(-254.93, -177.02)" d="M 254.933 114.585 C 220.45 114.585 192.495 142.539 192.495 177.023 C 192.495 211.507 220.449 239.461 254.933 239.461 C 289.417 239.461 317.371 211.507 317.371 177.02300000000002 C 317.371 142.53900000000004 289.416 114.58500000000002 254.933 114.58500000000002 z M 254.933 208.24099999999999 C 237.691 208.24099999999999 223.714 194.26399999999998 223.714 177.022 C 223.714 159.78 237.691 145.803 254.933 145.803 C 272.17499999999995 145.803 286.152 159.78 286.152 177.022 C 286.152 194.26399999999998 272.175 208.24099999999999 254.933 208.24099999999999 z" stroke-linecap="round" />
</g>
<g transform="matrix(0.96 0 0 0.96 255.35 180.21)" id="zKGi_P4SqbJjCsc-Lzgip"  >
<path style="stroke: none; stroke-width: 1; stroke-dasharray: none; stroke-linecap: butt; stroke-dashoffset: 0; stroke-linejoin: miter; stroke-miterlimit: 4; fill: rgb(200,191,209); fill-rule: nonzero; opacity: 1;" vector-effect="non-scaling-stroke"  transform=" translate(-260.48, -182.57)" d="M 290.437 125.671 C 297.421 135.75300000000001 301.523 147.982 301.523 161.175 C 301.523 195.65800000000002 273.569 223.613 239.086 223.613 C 225.893 223.613 213.66400000000002 219.511 203.58200000000002 212.527 C 214.85200000000003 228.797 233.64300000000003 239.46099999999998 254.93300000000002 239.46099999999998 C 289.416 239.46099999999998 317.37100000000004 211.50699999999998 317.37100000000004 177.02299999999997 C 317.37100000000004 155.73199999999997 306.70700000000005 136.94099999999997 290.437 125.67099999999996 z" stroke-linecap="round" />
</g>
<g transform="matrix(0.96 0 0 0.96 250 174.86)" id="M2ilMC2uSuTA4Jfg9wpj4"  >
<path style="stroke: none; stroke-width: 1; stroke-dasharray: none; stroke-linecap: butt; stroke-dashoffset: 0; stroke-linejoin: miter; stroke-miterlimit: 4; fill: rgb(214,210,217); fill-rule: nonzero; opacity: 1;" vector-effect="non-scaling-stroke"  transform=" translate(-10.13, -10.13)" d="M 0 10.125 C 0 4.53312 4.53312 0 10.125 0 C 15.71688 0 20.25 4.53312 20.25 10.125 C 20.25 15.71688 15.71688 20.25 10.125 20.25 C 4.53312 20.25 0 15.71688 0 10.125 z" stroke-linecap="round" />
</g>
<g transform="matrix(0.96 0 0 0.96 165.8 398.36)" id="zGRs5kO8XhXvgLgwlf2ng"  >
<path style="stroke: none; stroke-width: 1; stroke-dasharray: none; stroke-linecap: butt; stroke-dashoffset: 0; stroke-linejoin: miter; stroke-miterlimit: 4; fill: rgb(214,210,217); fill-rule: nonzero; opacity: 1;" vector-effect="non-scaling-stroke"  transform=" translate(-10.13, -10.13)" d="M 0 10.125 C 0 4.53312 4.53312 0 10.125 0 C 15.71688 0 20.25 4.53312 20.25 10.125 C 20.25 15.71688 15.71688 20.25 10.125 20.25 C 4.53312 20.25 0 15.71688 0 10.125 z" stroke-linecap="round" />
</g>
<g transform="matrix(0.96 0 0 0.96 196.97 429.53)" id="AVoYyFWifecPe4SEXntPm"  >
<path style="stroke: none; stroke-width: 1; stroke-dasharray: none; stroke-linecap: butt; stroke-dashoffset: 0; stroke-linejoin: miter; stroke-miterlimit: 4; fill: rgb(214,210,217); fill-rule: nonzero; opacity: 1;" vector-effect="non-scaling-stroke"  transform=" translate(-10.13, -10.13)" d="M 0 10.125 C 0 4.53312 4.53312 0 10.125 0 C 15.71688 0 20.25 4.53312 20.25 10.125 C 20.25 15.71688 15.71688 20.25 10.125 20.25 C 4.53312 20.25 0 15.71688 0 10.125 z" stroke-linecap="round" />
</g>
<g transform="matrix(0.96 0 0 0.96 102.71 467.15)" id="iU_u4DM3haVZg0aq7ZCcv"  >
<path style="stroke: none; stroke-width: 1; stroke-dasharray: none; stroke-linecap: butt; stroke-dashoffset: 0; stroke-linejoin: miter; stroke-miterlimit: 4; fill: rgb(214,210,217); fill-rule: nonzero; opacity: 1;" vector-effect="non-scaling-stroke"  transform=" translate(-10.13, -10.13)" d="M 0 10.125 C 0 4.53312 4.53312 0 10.125 0 C 15.71688 0 20.25 4.53312 20.25 10.125 C 20.25 15.71688 15.71688 20.25 10.125 20.25 C 4.53312 20.25 0 15.71688 0 10.125 z" stroke-linecap="round" />
</g>
<g transform="matrix(0.96 0 0 0.96 397.29 467.15)" id="ltG77FlCr6y7DJ4YKACM-"  >
<path style="stroke: none; stroke-width: 1; stroke-dasharray: none; stroke-linecap: butt; stroke-dashoffset: 0; stroke-linejoin: miter; stroke-miterlimit: 4; fill: rgb(214,210,217); fill-rule: nonzero; opacity: 1;" vector-effect="non-scaling-stroke"  transform=" translate(-10.13, -10.13)" d="M 0 10.125 C 0 4.53312 4.53312 0 10.125 0 C 15.71688 0 20.25 4.53312 20.25 10.125 C 20.25 15.71688 15.71688 20.25 10.125 20.25 C 4.53312 20.25 0 15.71688 0 10.125 z" stroke-linecap="round" />
</g>
<g transform="matrix(0.96 0 0 0.96 102.71 33.3)" id="i5bmGEcuK8q3Mr-EOJJF_"  >
<path style="stroke: none; stroke-width: 1; stroke-dasharray: none; stroke-linecap: butt; stroke-dashoffset: 0; stroke-linejoin: miter; stroke-miterlimit: 4; fill: rgb(214,210,217); fill-rule: nonzero; opacity: 1;" vector-effect="non-scaling-stroke"  transform=" translate(-10.13, -10.13)" d="M 0 10.125 C 0 4.53312 4.53312 0 10.125 0 C 15.71688 0 20.25 4.53312 20.25 10.125 C 20.25 15.71688 15.71688 20.25 10.125 20.25 C 4.53312 20.25 0 15.71688 0 10.125 z" stroke-linecap="round" />
</g>
<g transform="matrix(0.96 0 0 0.96 397.29 33.3)" id="xQgAXPwy2yUEcbTBmGk7g"  >
<path style="stroke: none; stroke-width: 1; stroke-dasharray: none; stroke-linecap: butt; stroke-dashoffset: 0; stroke-linejoin: miter; stroke-miterlimit: 4; fill: rgb(214,210,217); fill-rule: nonzero; opacity: 1;" vector-effect="non-scaling-stroke"  transform=" translate(-10.13, -10.13)" d="M 0 10.125 C 0 4.53312 4.53312 0 10.125 0 C 15.71688 0 20.25 4.53312 20.25 10.125 C 20.25 15.71688 15.71688 20.25 10.125 20.25 C 4.53312 20.25 0 15.71688 0 10.125 z" stroke-linecap="round" />
</g>
<g transform="matrix(0.96 0 0 0.96 334.4 358.86)" id="4UlbwhbPnwdfVKhqTidTl"  >
<path style="stroke: none; stroke-width: 1; stroke-dasharray: none; stroke-linecap: butt; stroke-dashoffset: 0; stroke-linejoin: miter; stroke-miterlimit: 4; fill: rgb(239,236,239); fill-rule: nonzero; opacity: 1;" vector-effect="non-scaling-stroke"  transform=" translate(-342.45, -367.81)" d="M 300.751 352.714 L 384.152 352.714 L 384.152 382.898 L 300.751 382.898 z" stroke-linecap="round" />
</g>
<g transform="matrix(0.96 0 0 0.96 334.4 367.67)" id="yJSJjFZxX20KuneRALy9D"  >
<path style="stroke: none; stroke-width: 1; stroke-dasharray: none; stroke-linecap: butt; stroke-dashoffset: 0; stroke-linejoin: miter; stroke-miterlimit: 4; fill: rgb(219,216,233); fill-rule: nonzero; opacity: 1;" vector-effect="non-scaling-stroke"  transform=" translate(-342.45, -376.94)" d="M 300.751 370.991 L 384.152 370.991 L 384.152 382.897 L 300.751 382.897 z" stroke-linecap="round" />
</g>
<g transform="matrix(0.96 0 0 0.96 300.63 365.04)" id="oscPBWd7tEklFWaPDtnzh"  >
<path style="stroke: none; stroke-width: 1; stroke-dasharray: none; stroke-linecap: butt; stroke-dashoffset: 0; stroke-linejoin: miter; stroke-miterlimit: 4; fill: rgb(200,191,209); fill-rule: nonzero; opacity: 1;" vector-effect="non-scaling-stroke"  transform=" translate(-307.43, -374.21)" d="M 303.851 395.712 L 289.933 395.712 C 287.724 395.712 285.933 393.921 285.933 391.712 L 285.933 356.714 C 285.933 354.505 287.724 352.714 289.933 352.714 L 324.931 352.714 C 327.14 352.714 328.931 354.505 328.931 356.714 L 328.931 370.632 C 328.931 384.483 317.702 395.712 303.851 395.712 z" stroke-linecap="round" />
</g>
<g transform="matrix(0.96 0 0 0.96 300.63 365.04)" id="yDEBkmNVyL4m0ovJrbqL3"  >
<path style="stroke: none; stroke-width: 1; stroke-dasharray: none; stroke-linecap: butt; stroke-dashoffset: 0; stroke-linejoin: miter; stroke-miterlimit: 4; fill: rgb(214,210,217); fill-rule: nonzero; opacity: 1;" vector-effect="non-scaling-stroke"  transform=" translate(-307.43, -374.21)" d="M 324.931 352.714 L 316.837 352.714 L 316.837 358.538 C 316.837 372.39 305.608 383.618 291.757 383.618 L 285.933 383.618 L 285.933 391.712 C 285.933 393.921 287.724 395.712 289.933 395.712 L 303.851 395.712 C 317.703 395.712 328.931 384.483 328.931 370.632 L 328.931 356.714 C 328.931 354.504 327.14 352.714 324.931 352.714 z" stroke-linecap="round" />
</g>
<g transform="matrix(0.96 0 0 0.96 366.78 365.04)" id="HT9ir0r1Q75cr0d0tm5Mo"  >
<path style="stroke: none; stroke-width: 1; stroke-dasharray: none; stroke-linecap: butt; stroke-dashoffset: 0; stroke-linejoin: miter; stroke-miterlimit: 4; fill: rgb(200,191,209); fill-rule: nonzero; opacity: 1;" vector-effect="non-scaling-stroke"  transform=" translate(-376.03, -374.21)" d="M 379.609 395.712 L 393.527 395.712 C 395.736 395.712 397.527 393.921 397.527 391.712 L 397.527 356.714 C 397.527 354.505 395.736 352.714 393.527 352.714 L 358.529 352.714 C 356.32 352.714 354.529 354.505 354.529 356.714 L 354.529 370.632 C 354.529 384.483 365.757 395.712 379.609 395.712 z" stroke-linecap="round" />
</g>
<g transform="matrix(0.96 0 0 0.96 367.77 365.04)" id="HnIK7IQ2aGl_GDENlvTl5"  >
<path style="stroke: none; stroke-width: 1; stroke-dasharray: none; stroke-linecap: butt; stroke-dashoffset: 0; stroke-linejoin: miter; stroke-miterlimit: 4; fill: rgb(214,210,217); fill-rule: nonzero; opacity: 1;" vector-effect="non-scaling-stroke"  transform=" translate(-377.05, -374.21)" d="M 393.527 352.714 L 384.43199999999996 352.714 L 384.43199999999996 378.618 C 384.43199999999996 380.827 382.64099999999996 382.618 380.43199999999996 382.618 L 366.51399999999995 382.618 C 362.98299999999995 382.618 359.62499999999994 381.885 356.578 380.569 C 360.42699999999996 389.47700000000003 369.28799999999995 395.713 379.609 395.713 L 393.527 395.713 C 395.736 395.713 397.527 393.922 397.527 391.713 L 397.527 356.71500000000003 C 397.527 354.504 395.736 352.71400000000006 393.527 352.71400000000006 z" stroke-linecap="round" />
</g>
<g transform="matrix(0.96 0 0 0.96 256.54 316.44)" id="V3GJFJaX52ckZ24NoXYNs"  >
<path style="stroke: none; stroke-width: 1; stroke-dasharray: none; stroke-linecap: butt; stroke-dashoffset: 0; stroke-linejoin: miter; stroke-miterlimit: 4; fill: rgb(200,191,209); fill-rule: nonzero; opacity: 1;" vector-effect="non-scaling-stroke"  transform=" translate(-261.72, -323.83)" d="M 209.628 373.713 L 210.47299999999998 378.399 C 211.70499999999998 385.232 216.19199999999998 391.034 222.49599999999998 393.944 L 239.63899999999998 401.86 C 251.16199999999998 407.18100000000004 264.751 401.298 268.756 389.255 L 313.65299999999996 254.262 C 315.13399999999996 249.81 312.448 245.052 307.86999999999995 244.02 C 304.44599999999997 243.24800000000002 300.92099999999994 244.818 299.2049999999999 247.88000000000002 L 254.3859999999999 327.856 C 246.9399999999999 341.143 234.76799999999992 351.142 220.2889999999999 355.866 C 212.7769999999999 358.318 208.2259999999999 365.937 209.6279999999999 373.71299999999997 z" stroke-linecap="round" />
</g>
<g transform="matrix(0.96 0 0 0.96 257.41 316.44)" id="rG_qXy2DFIhYsXT6zhWkQ"  >
<path style="stroke: none; stroke-width: 1; stroke-dasharray: none; stroke-linecap: butt; stroke-dashoffset: 0; stroke-linejoin: miter; stroke-miterlimit: 4; fill: rgb(214,210,217); fill-rule: nonzero; opacity: 1;" vector-effect="non-scaling-stroke"  transform=" translate(-262.62, -323.83)" d="M 307.87 244.02 C 304.446 243.24800000000002 300.921 244.818 299.205 247.88000000000002 L 294.18 256.84700000000004 L 254.788 375.28700000000003 C 250.78300000000002 387.33000000000004 237.19400000000002 393.213 225.67100000000002 387.89200000000005 L 211.18600000000004 381.20300000000003 C 213.00600000000003 386.79800000000006 217.07600000000002 391.44100000000003 222.49600000000004 393.94300000000004 L 239.63900000000004 401.85900000000004 C 251.16200000000003 407.18000000000006 264.75100000000003 401.297 268.75600000000003 389.254 L 313.653 254.26100000000002 C 315.13300000000004 249.81000000000003 312.447 245.05200000000002 307.87 244.02000000000004 z" stroke-linecap="round" />
</g>
<g transform="matrix(0.96 0 0 0.96 238.3 365.04)" id="7EA77_UtE_bkKmwhEkhxX"  >
<path style="stroke: none; stroke-width: 1; stroke-dasharray: none; stroke-linecap: butt; stroke-dashoffset: 0; stroke-linejoin: miter; stroke-miterlimit: 4; fill: rgb(239,236,239); fill-rule: nonzero; opacity: 1;" vector-effect="non-scaling-stroke"  transform=" translate(-9.85, -9.85)" d="M 0 9.845 C 0 4.407760000000001 4.40776 0 9.845 0 C 15.282240000000002 0 19.69 4.40776 19.69 9.845 C 19.69 15.282240000000002 15.282240000000002 19.69 9.845 19.69 C 4.407760000000001 19.69 0 15.282240000000002 0 9.845 z" stroke-linecap="round" />
</g>
<g transform="matrix(0.96 0 0 0.96 343.5 295.26)" id="ONL6HGyYBlpj47SG-vupb"  >
<path style="stroke: none; stroke-width: 1; stroke-dasharray: none; stroke-linecap: butt; stroke-dashoffset: 0; stroke-linejoin: miter; stroke-miterlimit: 4; fill: rgb(226,128,134); fill-rule: nonzero; opacity: 1;" vector-effect="non-scaling-stroke"  transform=" translate(-351.89, -301.87)" d="M 351.891 333.06 C 343.612 333.06 336.901 326.349 336.901 318.07 L 336.901 285.667 C 336.901 277.388 343.612 270.67699999999996 351.891 270.67699999999996 C 360.17 270.67699999999996 366.88100000000003 277.388 366.88100000000003 285.667 L 366.88100000000003 318.07 C 366.88100000000003 326.349 360.17 333.06 351.891 333.06 z" stroke-linecap="round" />
</g>
<g transform="matrix(0.96 0 0 0.96 343.73 295.3)" id="NYBVSPSBYX2zBShruiyja"  >
<path style="stroke: none; stroke-width: 1; stroke-dasharray: none; stroke-linecap: butt; stroke-dashoffset: 0; stroke-linejoin: miter; stroke-miterlimit: 4; fill: rgb(221,99,110); fill-rule: nonzero; opacity: 1;" vector-effect="non-scaling-stroke"  transform=" translate(-352.12, -301.9)" d="M 353.118 270.741 C 353.407 271.904 353.578 273.113 353.578 274.365 L 353.578 306.76800000000003 C 353.578 315.047 346.86699999999996 321.75800000000004 338.58799999999997 321.75800000000004 C 338.174 321.75800000000004 337.76699999999994 321.72900000000004 337.36199999999997 321.696 C 338.98499999999996 328.22 344.86499999999995 333.062 351.89199999999994 333.062 C 360.17099999999994 333.062 366.88199999999995 326.351 366.88199999999995 318.072 L 366.88199999999995 285.669 C 366.881 277.804 360.82099999999997 271.366 353.11799999999994 270.741 z" stroke-linecap="round" />
</g>
</svg>