<?xml version="1.0" encoding="UTF-8" standalone="no" ?>
<!DOCTYPE svg PUBLIC "-//W3C//DTD SVG 1.1//EN" "http://www.w3.org/Graphics/SVG/1.1/DTD/svg11.dtd">
<svg xmlns="http://www.w3.org/2000/svg" xmlns:xlink="http://www.w3.org/1999/xlink" version="1.1" width="500" height="500" viewBox="0 0 500 500" xml:space="preserve">
<desc>Created with Fabric.js 4.6.0</desc>
<defs>
</defs>
<g transform="matrix(10.96 0 0 10.96 239.04 271.91)" id="1efLDoWH1yA_YiO7XxrGw"  >
<path style="stroke: none; stroke-width: 1; stroke-dasharray: none; stroke-linecap: butt; stroke-dashoffset: 0; stroke-linejoin: miter; stroke-miterlimit: 4; fill: rgb(3,169,244); fill-rule: nonzero; opacity: 1;" vector-effect="non-scaling-stroke"  transform=" translate(-23, -26)" d="M 44 38 L 6.6 43.9 L 2 13.8 L 39.2 8.1 z" stroke-linecap="round" />
</g>
<g transform="matrix(10.96 0 0 10.96 262.06 271.91)" id="9KyIFRyrpTpNWEnKOZnWQ"  >
<path style="stroke: none; stroke-width: 1; stroke-dasharray: none; stroke-linecap: butt; stroke-dashoffset: 0; stroke-linejoin: miter; stroke-miterlimit: 4; fill: rgb(3,155,229); fill-rule: nonzero; opacity: 1;" vector-effect="non-scaling-stroke"  transform=" translate(-25.1, -26)" d="M 39.2 8.1 L 44 38 L 6.6 43.9 L 6.2 41 z" stroke-linecap="round" />
</g>
<g transform="matrix(10.96 0 0 10.96 119.56 206.14)" id="R02GvAMVzt3-3ngdBd7yD"  >
<path style="stroke: none; stroke-width: 1; stroke-dasharray: none; stroke-linecap: butt; stroke-dashoffset: 0; stroke-linejoin: miter; stroke-miterlimit: 4; fill: rgb(41,182,246); fill-rule: nonzero; opacity: 1;" vector-effect="non-scaling-stroke"  transform=" translate(-12.1, -20)" d="M 2 13.8 L 4.4 29.3 L 22.2 10.7 z" stroke-linecap="round" />
</g>
<g transform="matrix(10.96 0 0 10.96 239.59 271.36)" id="hBnJCnz-QxhTHEQCoizFK"  >
<path style="stroke: none; stroke-width: 1; stroke-dasharray: none; stroke-linecap: butt; stroke-dashoffset: 0; stroke-linejoin: miter; stroke-miterlimit: 4; fill: rgb(255,255,255); fill-rule: nonzero; opacity: 1;" vector-effect="non-scaling-stroke"  transform=" translate(-23.05, -25.95)" d="M 8.3 41.6 L 4.300000000000001 15.400000000000002 L 37.599999999999994 10.300000000000002 L 41.8 36.300000000000004 L 8.3 41.6 z M 6.6 17.1 L 10 39.3 L 39.5 34.599999999999994 L 36 12.499999999999993 L 6.6 17.1 z" stroke-linecap="round" />
</g>
<g transform="matrix(10.96 0 0 10.96 245.07 277.94)" id="xXOrACuGVXC8ghCBCs680"  >
<path style="stroke: none; stroke-width: 1; stroke-dasharray: none; stroke-linecap: butt; stroke-dashoffset: 0; stroke-linejoin: miter; stroke-miterlimit: 4; fill: rgb(255,255,255); fill-rule: nonzero; opacity: 1;" vector-effect="non-scaling-stroke"  transform=" translate(-23.55, -26.55)" d="M 11.1 27 L 11.5 30 L 36 26.1 L 35.5 23.1 z" stroke-linecap="round" />
</g>
<g transform="matrix(10.96 0 0 10.96 258.22 283.09)" id="0TT_9BZchMkAl346F1E0I"  >
<path style="stroke: none; stroke-width: 1; stroke-dasharray: none; stroke-linecap: butt; stroke-dashoffset: 0; stroke-linejoin: miter; stroke-miterlimit: 4; fill: rgb(255,255,255); fill-rule: nonzero; opacity: 1;" vector-effect="non-scaling-stroke"  transform=" translate(-24.75, -27.02)" d="M 16.6 34.3 L 13.5 38 L 13.9 33.2 C 13.9 33.1 13.9 33 14 32.900000000000006 L 19.2 20.200000000000006 C 19.4 19.700000000000006 20 19.400000000000006 20.5 19.700000000000006 L 21.4 20.100000000000005 C 21.9 20.300000000000004 22.2 20.900000000000006 21.9 21.400000000000006 L 16.8 34 C 16.7 34.1 16.7 34.2 16.6 34.3 z M 30.7 29.2 L 21.4 18.299999999999997 C 21 17.9 21.099999999999998 17.199999999999996 21.5 16.9 L 22.3 16.299999999999997 C 22.7 15.899999999999997 23.400000000000002 15.999999999999996 23.7 16.4 L 33 27.3 L 30.7 29.2 z M 33.6 28 C 33.6 28 36 28.7 36 31.5 C 36 33.3 35.5 34 35.5 34 C 35.5 34 35.1 32.8 33.2 32.1 C 30.6 31.200000000000003 30.700000000000003 29.200000000000003 30.700000000000003 29.200000000000003 L 32.900000000000006 28.700000000000003 L 33.6 28 z" stroke-linecap="round" />
</g>
<g transform="matrix(10.96 0 0 10.96 209.99 276.84)" id="sqLJSOAISEZ5CupWdkInn"  >
<path style="stroke: none; stroke-width: 1; stroke-dasharray: none; stroke-linecap: butt; stroke-dashoffset: 0; stroke-linejoin: miter; stroke-miterlimit: 4; fill: rgb(3,169,244); fill-rule: nonzero; opacity: 1;" vector-effect="non-scaling-stroke"  transform=" translate(-20.35, -26.45)" d="M 20.4 25 L 19.2 27.9 L 21.1 26.1 L 21.5 25 z" stroke-linecap="round" />
</g>
<g transform="matrix(10.96 0 0 10.96 203.41 294.38)" id="SbG-8BxocVAXHe8xRBw1O"  >
<path style="stroke: none; stroke-width: 1; stroke-dasharray: none; stroke-linecap: butt; stroke-dashoffset: 0; stroke-linejoin: miter; stroke-miterlimit: 4; fill: rgb(3,155,229); fill-rule: nonzero; opacity: 1;" vector-effect="non-scaling-stroke"  transform=" translate(-19.75, -28.05)" d="M 19.5 30 L 21.1 26.1 L 19.2 27.9 L 18.4 30 z" stroke-linecap="round" />
</g>
<g transform="matrix(10.96 0 0 10.96 158.47 288.35)" id="lINL1JPAPWZB_jjtnBZ1U"  >
<path style="stroke: none; stroke-width: 1; stroke-dasharray: none; stroke-linecap: butt; stroke-dashoffset: 0; stroke-linejoin: miter; stroke-miterlimit: 4; fill: rgb(3,169,244); fill-rule: nonzero; opacity: 1;" vector-effect="non-scaling-stroke"  transform=" translate(-15.65, -27.5)" d="M 15.2 30 L 17.2 25 L 16.1 25 L 14.1 30 z" stroke-linecap="round" />
</g>
<g transform="matrix(10.96 0 0 10.96 311.93 280.68)" id="dhhre_PnmweQCPJD2xxgG"  >
<path style="stroke: none; stroke-width: 1; stroke-dasharray: none; stroke-linecap: butt; stroke-dashoffset: 0; stroke-linejoin: miter; stroke-miterlimit: 4; fill: rgb(3,155,229); fill-rule: nonzero; opacity: 1;" vector-effect="non-scaling-stroke"  transform=" translate(-29.65, -26.8)" d="M 33.9 26.8 L 30.6 23 L 29.3 23 L 32.8 27 L 33 27.3 L 30.7 29.2 L 29.4 27.7 L 29.4 27.7 L 26.2 24 L 24.9 24 L 27.9 27.5 L 29.9 29.9 L 30.6 30.6 L 31.3 30 L 33.6 28 L 34.4 27.4 z" stroke-linecap="round" />
</g>
<g transform="matrix(10.96 0 0 10.96 200.67 233.54)" id="7B41CRB0cYHW3yChCtzsr"  >
<path style="stroke: none; stroke-width: 1; stroke-dasharray: none; stroke-linecap: butt; stroke-dashoffset: 0; stroke-linejoin: miter; stroke-miterlimit: 4; fill: rgb(3,169,244); fill-rule: nonzero; opacity: 1;" vector-effect="non-scaling-stroke"  transform=" translate(-19.5, -22.5)" d="M 17 20.9 L 17 22 L 22 24.1 L 22 23 z" stroke-linecap="round" />
</g>
<g transform="matrix(10.96 0 0 10.96 162.85 354.12)" id="d0zbXBmoVsRoBQsFWmP5h"  >
<path style="stroke: none; stroke-width: 1; stroke-dasharray: none; stroke-linecap: butt; stroke-dashoffset: 0; stroke-linejoin: miter; stroke-miterlimit: 4; fill: rgb(3,155,229); fill-rule: nonzero; opacity: 1;" vector-effect="non-scaling-stroke"  transform=" translate(-16.05, -33.5)" d="M 18 33.6 L 14.9 32.3 L 14.1 33.1 L 18 34.7 z" stroke-linecap="round" />
</g>
<g transform="matrix(10.96 0 0 10.96 139.83 340.97)" id="7Kwp_oEBXbijbfbXEcGn6"  >
<path style="stroke: none; stroke-width: 1; stroke-dasharray: none; stroke-linecap: butt; stroke-dashoffset: 0; stroke-linejoin: miter; stroke-miterlimit: 4; fill: rgb(3,169,244); fill-rule: nonzero; opacity: 1;" vector-effect="non-scaling-stroke"  transform=" translate(-13.95, -32.3)" d="M 13 31.5 L 13 32.6 L 14.1 33.1 L 14.9 32.3 z" stroke-linecap="round" />
</g>
<g transform="matrix(10.96 0 0 10.96 368.94 264.24)" id="8_pSp5PDwYpuqeV3agHzN"  >
<path style="stroke: none; stroke-width: 1; stroke-dasharray: none; stroke-linecap: butt; stroke-dashoffset: 0; stroke-linejoin: miter; stroke-miterlimit: 4; fill: rgb(2,119,189); fill-rule: nonzero; opacity: 1;" vector-effect="non-scaling-stroke"  transform=" translate(-34.85, -25.3)" d="M 37.9 12.2 C 37.9 12.2 37.9 12.299999999999999 37.9 12.299999999999999 L 38.6 16.5 L 39.9 12.9 C 39.9 12.8 40 12.700000000000001 40 12.6 L 39.6 10.3 C 38.8 10.8 38.1 11.6 37.9 12.2 z M 33.9 32.4 C 33.699999999999996 32.3 33.5 32.199999999999996 33.199999999999996 32.1 C 32.699999999999996 31.900000000000002 32.4 31.8 32.099999999999994 31.6 L 30.8 36 L 33 35.7 L 33.9 32.4 z M 30.2 38.1 L 29.7 40.3 L 31.8 39.9 L 32.4 37.8 z M 34.8 21.8 L 34.8 21.9 L 34.4 23.3 L 35.5 23.1 L 35.9 25.3 L 36.7 22.4 L 37.2 20.8 L 36.5 16.4 L 35.4 19.9 z" stroke-linecap="round" />
</g>
<g transform="matrix(10.96 0 0 10.96 363.45 263.14)" id="hCcJEuv6G_WdSjkXd-gzF"  >
<path style="stroke: none; stroke-width: 1; stroke-dasharray: none; stroke-linecap: butt; stroke-dashoffset: 0; stroke-linejoin: miter; stroke-miterlimit: 4; fill: rgb(144,164,174); fill-rule: nonzero; opacity: 1;" vector-effect="non-scaling-stroke"  transform=" translate(-34.35, -25.2)" d="M 36.5 16.4 L 37.2 20.799999999999997 L 38.5 16.499999999999996 L 37.8 12.299999999999997 C 37.3 13.699999999999998 36.8 15.099999999999998 36.699999999999996 15.299999999999997 L 36.5 16.4 z M 30.8 36 L 30.2 38.1 L 32.4 37.8 L 33 35.7 z M 35.9 25.3 L 35.5 23.1 L 34.4 23.3 L 33.5 26.5 L 35.6 26.2 z M 33.6 28 L 33 28.3 L 32.1 31.6 C 32.4 31.8 32.800000000000004 32 33.2 32.1 C 33.5 32.2 33.7 32.300000000000004 33.900000000000006 32.4 L 34.900000000000006 28.799999999999997 C 34.3 28.2 33.6 28 33.6 28 z" stroke-linecap="round" />
</g>
<g transform="matrix(10.96 0 0 10.96 361.81 287.8)" id="SYRQFFyEXiO7E0IL5yP7x"  >
<path style="stroke: none; stroke-width: 1; stroke-dasharray: none; stroke-linecap: butt; stroke-dashoffset: 0; stroke-linejoin: miter; stroke-miterlimit: 4; fill: rgb(2,119,189); fill-rule: nonzero; opacity: 1;" vector-effect="non-scaling-stroke"  transform=" translate(-34.2, -27.45)" d="M 34.9 28.8 L 35.6 26.1 L 33.4 26.400000000000002 L 32.8 28.6 L 33.599999999999994 27.900000000000002 C 33.6 28 34.3 28.2 34.9 28.8 z" stroke-linecap="round" />
</g>
<g transform="matrix(10.96 0 0 10.96 353.04 317.95)" id="QtC5iEZ5eh-EIw0KzGxit"  >
<path style="stroke: none; stroke-width: 1; stroke-dasharray: none; stroke-linecap: butt; stroke-dashoffset: 0; stroke-linejoin: miter; stroke-miterlimit: 4; fill: rgb(144,164,174); fill-rule: nonzero; opacity: 1;" vector-effect="non-scaling-stroke"  transform=" translate(-33.4, -30.2)" d="M 33.6 28 L 32.800000000000004 28.7 L 32.00000000000001 31.599999999999998 C 32.300000000000004 31.799999999999997 32.70000000000001 31.999999999999996 33.10000000000001 32.099999999999994 C 33.400000000000006 32.199999999999996 33.60000000000001 32.3 33.80000000000001 32.39999999999999 L 34.80000000000001 28.79999999999999 C 34.3 28.2 33.6 28 33.6 28 z" stroke-linecap="round" />
</g>
<g transform="matrix(10.96 0 0 10.96 326.73 69.12)" id="qvc7Dgtrdjmvx66aV-5IC"  >
<path style="stroke: none; stroke-width: 1; stroke-dasharray: none; stroke-linecap: butt; stroke-dashoffset: 0; stroke-linejoin: miter; stroke-miterlimit: 4; fill: rgb(120,144,156); fill-rule: nonzero; opacity: 1;" vector-effect="non-scaling-stroke"  transform=" translate(-31, -7.5)" d="M 36 4.5 C 30 4.5 26 6 26 6 L 26 6.5 C 34.6 6.5 35.7 9.7 36 10.5 L 36 4.5 z" stroke-linecap="round" />
</g>
<g transform="matrix(10.96 0 0 10.96 376.06 123.38)" id="oCd7OFvsi9ufKrx_lji6i"  >
<path style="stroke: none; stroke-width: 1; stroke-dasharray: none; stroke-linecap: butt; stroke-dashoffset: 0; stroke-linejoin: miter; stroke-miterlimit: 4; fill: rgb(215,222,226); fill-rule: nonzero; opacity: 1;" vector-effect="non-scaling-stroke"  transform=" translate(-35.5, -12.45)" d="M 44 6.3 C 43.8 6.7 43.6 7 43 7 C 41.9 7 41 5.4 41 5.4 C 39.3 4.3 36 3 33 3 C 27 3 25 4.5 25 4.5 L 25 5 C 29.2 5 30.8 5.4 32.3 6.5 C 34.699999999999996 8.3 34.5 12.4 33.599999999999994 15.6 L 31.8 21 L 34.7 21.9 L 36.800000000000004 15.299999999999999 C 36.900000000000006 15.2 37.400000000000006 13.7 37.900000000000006 12.2 C 38.2 11.399999999999999 39.00000000000001 10.399999999999999 40.00000000000001 10.1 C 40.60000000000001 9.9 41.400000000000006 9.799999999999999 41.900000000000006 10.2 C 42.400000000000006 10.6 42.400000000000006 10.899999999999999 42.300000000000004 11.299999999999999 L 42.300000000000004 11.299999999999999 L 44.300000000000004 11.899999999999999 L 46 7 L 44 6.3 z" stroke-linecap="round" />
</g>
<g transform="matrix(10.96 0 0 10.96 411.14 82.82)" id="PjpX6nRrWvT46EEOzibAf"  >
<path style="stroke: none; stroke-width: 1; stroke-dasharray: none; stroke-linecap: butt; stroke-dashoffset: 0; stroke-linejoin: miter; stroke-miterlimit: 4; fill: rgb(144,164,174); fill-rule: nonzero; opacity: 1;" vector-effect="non-scaling-stroke"  transform=" translate(-38.7, -8.75)" d="M 43 7 C 41.9 7 41 5.4 41 5.4 L 40.2 7.9 C 39.900000000000006 9 38.7 9.5 37.7 9.200000000000001 L 33.400000000000006 7.800000000000001 C 33.900000000000006 8.700000000000001 34.10000000000001 9.700000000000001 34.2 10.9 L 38 12.1 C 38.3 11.5 38.8 10.799999999999999 39.5 10.4 L 39.5 10.4 C 39.7 10.3 39.9 10.200000000000001 40.1 10.1 C 40.7 9.9 41.5 9.799999999999999 42 10.2 C 42.5 10.6 42.5 10.899999999999999 42.4 11.299999999999999 L 42.4 11.299999999999999 L 44 6.299999999999999 C 43.8 6.7 43.6 7 43 7 z" stroke-linecap="round" />
</g>
<g transform="matrix(10.96 0 0 10.96 302.84 348.64)" id="OmWHL1WyCSnMiykoaARcz"  >
<path style="stroke: none; stroke-width: 1; stroke-dasharray: none; stroke-linecap: butt; stroke-dashoffset: 0; stroke-linejoin: miter; stroke-miterlimit: 4; fill: rgb(66,66,66); fill-rule: nonzero; opacity: 1;" vector-effect="non-scaling-stroke"  transform=" translate(-28.82, -33)" d="M 31.8 21 L 23.1 41.3 C 22.6 42.599999999999994 23.3 44.199999999999996 24.700000000000003 44.599999999999994 L 25.6 44.89999999999999 C 27 45.29999999999999 28.400000000000002 44.49999999999999 28.700000000000003 43.49999999999999 L 34.7 21.89999999999999 L 31.8 21 z" stroke-linecap="round" />
</g>
</svg>