<?xml version="1.0" encoding="UTF-8" standalone="no" ?>
<!DOCTYPE svg PUBLIC "-//W3C//DTD SVG 1.1//EN" "http://www.w3.org/Graphics/SVG/1.1/DTD/svg11.dtd">
<svg xmlns="http://www.w3.org/2000/svg" xmlns:xlink="http://www.w3.org/1999/xlink" version="1.1" width="500" height="500" viewBox="0 0 500 500" xml:space="preserve">
<desc>Created with Fabric.js 4.6.0</desc>
<defs>
</defs>
<g transform="matrix(7.34 0 0 7.34 248.61 250)" id="_c07mSRjzAWEejPUftu7d"  >
<path style="stroke: none; stroke-width: 1; stroke-dasharray: none; stroke-linecap: butt; stroke-dashoffset: 0; stroke-linejoin: miter; stroke-miterlimit: 4; fill: rgb(255,244,237); fill-rule: nonzero; opacity: 1;" vector-effect="non-scaling-stroke"  transform=" translate(-29, -29)" d="M 0 29 C 0 12.983740000000001 12.98374 0 29 0 C 45.01626 0 58 12.98374 58 29 C 58 45.01626 45.01626 58 29 58 C 12.983740000000001 58 0 45.01626 0 29 z" stroke-linecap="round" />
</g>
<g transform="matrix(7.34 0 0 7.34 248.61 249.96)" id="iVj66T4YewCkaoMW0OhoV"  >
<path style="stroke: none; stroke-width: 1; stroke-dasharray: none; stroke-linecap: butt; stroke-dashoffset: 0; stroke-linejoin: miter; stroke-miterlimit: 4; fill: rgb(202,170,40); fill-rule: nonzero; opacity: 1;" vector-effect="non-scaling-stroke"  transform=" translate(-29, -29.2)" d="M 29 4.195 C 42.785 4.195 54 15.41 54 29.195 C 54 42.980000000000004 42.785 54.195 29 54.195 C 15.215000000000003 54.195 4 42.980000000000004 4 29.195 C 4 15.409999999999997 15.215 4.195 29 4.195 M 29 0.195 C 12.984000000000002 0.195 0 13.179 0 29.195 C 0 45.211 12.984 58.195 29 58.195 C 45.016 58.195 58 45.211 58 29.195 C 58 13.179000000000002 45.016 0.195 29 0.195 L 29 0.195 z" stroke-linecap="round" />
</g>
<g transform="matrix(7.34 0 0 7.34 250 91.43)" id="rqn9tUdfB6Fb8vtnWGjGh"  >
<path style="stroke: none; stroke-width: 1; stroke-dasharray: none; stroke-linecap: butt; stroke-dashoffset: 0; stroke-linejoin: miter; stroke-miterlimit: 4; fill: rgb(241,212,174); fill-rule: nonzero; opacity: 1;" vector-effect="non-scaling-stroke"  transform=" translate(-29, -7.57)" d="M 29 6.073 C 28.448 6.073 28 6.5200000000000005 28 7.073 L 28 8.073 C 28 8.626000000000001 28.448 9.073 29 9.073 C 29.552 9.073 30 8.626000000000001 30 8.073 L 30 7.073 C 30 6.521 29.552 6.073 29 6.073 z" stroke-linecap="round" />
</g>
<g transform="matrix(7.34 0 0 7.34 248.61 406.85)" id="Jl_xlwTGOMm9Q7bv6glT5"  >
<path style="stroke: none; stroke-width: 1; stroke-dasharray: none; stroke-linecap: butt; stroke-dashoffset: 0; stroke-linejoin: miter; stroke-miterlimit: 4; fill: rgb(241,212,174); fill-rule: nonzero; opacity: 1;" vector-effect="non-scaling-stroke"  transform=" translate(-29, -50.57)" d="M 29 49.073 C 28.448 49.073 28 49.52 28 50.073 L 28 51.073 C 28 51.626 28.448 52.073 29 52.073 C 29.552 52.073 30 51.626 30 51.073 L 30 50.073 C 30 49.521 29.552 49.073 29 49.073 z" stroke-linecap="round" />
</g>
<g transform="matrix(7.34 0 0 7.34 406.31 249.14)" id="i0hmbKbhV5ctWRmJ5mclW"  >
<path style="stroke: none; stroke-width: 1; stroke-dasharray: none; stroke-linecap: butt; stroke-dashoffset: 0; stroke-linejoin: miter; stroke-miterlimit: 4; fill: rgb(241,212,174); fill-rule: nonzero; opacity: 1;" vector-effect="non-scaling-stroke"  transform=" translate(-50.5, -29.07)" d="M 51 28.073 L 50 28.073 C 49.448 28.073 49 28.52 49 29.073 C 49 29.626 49.448 30.073 50 30.073 L 51 30.073 C 51.552 30.073 52 29.626 52 29.073 C 52 28.52 51.552 28.073 51 28.073 z" stroke-linecap="round" />
</g>
<g transform="matrix(7.34 0 0 7.34 90.9 249.14)" id="Ak52q0iux16pJ9_6t6W7S"  >
<path style="stroke: none; stroke-width: 1; stroke-dasharray: none; stroke-linecap: butt; stroke-dashoffset: 0; stroke-linejoin: miter; stroke-miterlimit: 4; fill: rgb(241,212,174); fill-rule: nonzero; opacity: 1;" vector-effect="non-scaling-stroke"  transform=" translate(-7.5, -29.07)" d="M 8 28.073 L 7 28.073 C 6.448 28.073 6 28.52 6 29.073 C 6 29.626 6.448 30.073 7 30.073 L 8 30.073 C 8.552 30.073 9 29.626 9 29.073 C 9 28.52 8.552 28.073 8 28.073 z" stroke-linecap="round" />
</g>
<g transform="matrix(7.34 0 0 7.34 360.12 137.62)" id="DZl7aH2jAnJK1dee36NN9"  >
<path style="stroke: none; stroke-width: 1; stroke-dasharray: none; stroke-linecap: butt; stroke-dashoffset: 0; stroke-linejoin: miter; stroke-miterlimit: 4; fill: rgb(241,212,174); fill-rule: nonzero; opacity: 1;" vector-effect="non-scaling-stroke"  transform=" translate(-44.2, -13.87)" d="M 43.849 12.81 L 43.141999999999996 13.517000000000001 C 42.751 13.908000000000001 42.751 14.540000000000001 43.141999999999996 14.931000000000001 C 43.336999999999996 15.126000000000001 43.592999999999996 15.224 43.849 15.224 C 44.105 15.224 44.361 15.126 44.556 14.931000000000001 L 45.263 14.224 C 45.653999999999996 13.833 45.653999999999996 13.201 45.263 12.81 C 44.872 12.419 44.24 12.419 43.849 12.81 z" stroke-linecap="round" />
</g>
<g transform="matrix(7.34 0 0 7.34 137.02 360.58)" id="bFnJamzvTq4qLwW-BeizN"  >
<path style="stroke: none; stroke-width: 1; stroke-dasharray: none; stroke-linecap: butt; stroke-dashoffset: 0; stroke-linejoin: miter; stroke-miterlimit: 4; fill: rgb(241,212,174); fill-rule: nonzero; opacity: 1;" vector-effect="non-scaling-stroke"  transform=" translate(-13.8, -44.28)" d="M 13.444 43.216 L 12.737 43.923 C 12.346 44.314 12.346 44.946000000000005 12.737 45.337 C 12.932 45.532000000000004 13.188 45.63 13.444 45.63 C 13.700000000000001 45.63 13.956000000000001 45.532000000000004 14.151000000000002 45.337 L 14.858000000000002 44.63 C 15.249000000000002 44.239000000000004 15.249000000000002 43.607 14.858000000000002 43.216 C 14.467000000000002 42.825 13.834 42.825 13.444 43.216 z" stroke-linecap="round" />
</g>
<g transform="matrix(7.34 0 0 7.34 360.12 360.58)" id="ZONX5nUrtWpXsRDVgFd1N"  >
<path style="stroke: none; stroke-width: 1; stroke-dasharray: none; stroke-linecap: butt; stroke-dashoffset: 0; stroke-linejoin: miter; stroke-miterlimit: 4; fill: rgb(134,151,203); fill-rule: nonzero; opacity: 1;" vector-effect="non-scaling-stroke"  transform=" translate(-44.2, -44.28)" d="M 44.556 43.216 C 44.165 42.825 43.532999999999994 42.825 43.141999999999996 43.216 C 42.751 43.607 42.751 44.239000000000004 43.141999999999996 44.63 L 43.849 45.337 C 44.044 45.532000000000004 44.3 45.63 44.556 45.63 C 44.812 45.63 45.068 45.532000000000004 45.263 45.337 C 45.653999999999996 44.946000000000005 45.653999999999996 44.314 45.263 43.923 L 44.556 43.216 z" stroke-linecap="round" />
</g>
<g transform="matrix(7.34 0 0 7.34 137.02 137.62)" id="9tSX_N2DrT2LZ8oY6iWKA"  >
<path style="stroke: none; stroke-width: 1; stroke-dasharray: none; stroke-linecap: butt; stroke-dashoffset: 0; stroke-linejoin: miter; stroke-miterlimit: 4; fill: rgb(241,212,174); fill-rule: nonzero; opacity: 1;" vector-effect="non-scaling-stroke"  transform=" translate(-13.8, -13.87)" d="M 14.151 12.81 C 13.76 12.419 13.128 12.419 12.737 12.81 C 12.346 13.201 12.346 13.833 12.737 14.224 L 13.444 14.931000000000001 C 13.639000000000001 15.126000000000001 13.895000000000001 15.224 14.151000000000002 15.224 C 14.407000000000002 15.224 14.663000000000002 15.126 14.858000000000002 14.931000000000001 C 15.249000000000002 14.540000000000001 15.249000000000002 13.908000000000001 14.858000000000002 13.517000000000001 L 14.151 12.81 z" stroke-linecap="round" />
</g>
<g transform="matrix(7.34 0 0 7.34 197.26 249.15)" id="yd9ZuRD9mhrIdf91B_r2o"  >
<path style="stroke: none; stroke-width: 1; stroke-dasharray: none; stroke-linecap: butt; stroke-dashoffset: 0; stroke-linejoin: miter; stroke-miterlimit: 4; fill: rgb(84,94,115); fill-rule: nonzero; opacity: 1;" vector-effect="non-scaling-stroke"  transform=" translate(-22, -29.07)" d="M 26 30.074 L 18 30.074 C 17.448 30.074 17 29.627000000000002 17 29.074 C 17 28.521 17.448 28.074 18 28.074 L 26 28.074 C 26.552 28.074 27 28.521 27 29.074 C 27 29.627000000000002 26.552 30.074 26 30.074 z" stroke-linecap="round" />
</g>
<g transform="matrix(7.34 0 0 7.34 248.61 186.8)" id="QytbbFM4nkAX_qzOxqigw"  >
<path style="stroke: none; stroke-width: 1; stroke-dasharray: none; stroke-linecap: butt; stroke-dashoffset: 0; stroke-linejoin: miter; stroke-miterlimit: 4; fill: rgb(84,94,115); fill-rule: nonzero; opacity: 1;" vector-effect="non-scaling-stroke"  transform=" translate(-29, -20.57)" d="M 29 27.074 C 28.448 27.074 28 26.627000000000002 28 26.074 L 28 15.074000000000002 C 28 14.521 28.448 14.074000000000002 29 14.074000000000002 C 29.552 14.074000000000002 30 14.521 30 15.074000000000002 L 30 26.074 C 30 26.626 29.552 27.074 29 27.074 z" stroke-linecap="round" />
</g>
<g transform="matrix(7.34 0 0 7.34 248.61 249.15)" id="4YA3CCpjOIBzAf3SHR2aC"  >
<path style="stroke: none; stroke-width: 1; stroke-dasharray: none; stroke-linecap: butt; stroke-dashoffset: 0; stroke-linejoin: miter; stroke-miterlimit: 4; fill: rgb(84,94,115); fill-rule: nonzero; opacity: 1;" vector-effect="non-scaling-stroke"  transform=" translate(-29, -29.07)" d="M 29 33.074 C 26.794 33.074 25 31.279999999999998 25 29.073999999999998 C 25 26.868 26.794 25.073999999999998 29 25.073999999999998 C 31.206 25.073999999999998 33 26.868 33 29.073999999999998 C 33 31.279999999999998 31.206 33.074 29 33.074 z M 29 27.074 C 27.897 27.074 27 27.971 27 29.074 C 27 30.177000000000003 27.897 31.074 29 31.074 C 30.103 31.074 31 30.177000000000003 31 29.074 C 31 27.971 30.103 27.074 29 27.074 z" stroke-linecap="round" />
</g>
<g transform="matrix(7.34 0 0 7.34 376.09 374.7)" id="jRtjZH04lo6ZnPEczoqfG"  >
<path style="stroke: none; stroke-width: 1; stroke-dasharray: none; stroke-linecap: butt; stroke-dashoffset: 0; stroke-linejoin: miter; stroke-miterlimit: 4; fill: rgb(237,113,97); fill-rule: nonzero; opacity: 1;" vector-effect="non-scaling-stroke"  transform=" translate(-12, -12)" d="M 0 12 C 0 5.37258 5.37258 0 12 0 C 18.62742 0 24 5.37258 24 12 C 24 18.62742 18.62742 24 12 24 C 5.37258 24 0 18.62742 0 12 z" stroke-linecap="round" />
</g>
<g transform="matrix(7.34 0 0 7.34 376.09 374.73)" id="0K9I-DRkPpz6zmj0iY0Zl"  >
<path style="stroke: none; stroke-width: 1; stroke-dasharray: none; stroke-linecap: butt; stroke-dashoffset: 0; stroke-linejoin: miter; stroke-miterlimit: 4; fill: rgb(255,255,255); fill-rule: nonzero; opacity: 1;" vector-effect="non-scaling-stroke"  transform=" translate(-46.39, -46.19)" d="M 47.804 46.195 L 51.34 42.659 C 51.731 42.268 51.731 41.635999999999996 51.34 41.245 C 50.949000000000005 40.854 50.317 40.854 49.926 41.245 L 46.39 44.781 L 42.854 41.245 C 42.463 40.854 41.830999999999996 40.854 41.44 41.245 C 41.049 41.635999999999996 41.049 42.268 41.44 42.659 L 44.976 46.195 L 41.44 49.73 C 41.049 50.120999999999995 41.049 50.753 41.44 51.144 C 41.635 51.339 41.891 51.437 42.147 51.437 C 42.403 51.437 42.659 51.339 42.854 51.144 L 46.39 47.608 L 49.926 51.144 C 50.121 51.339 50.377 51.437 50.633 51.437 C 50.889 51.437 51.145 51.339 51.34 51.144 C 51.731 50.753 51.731 50.120999999999995 51.34 49.73 L 47.804 46.195 z" stroke-linecap="round" />
</g>
</svg>