<?xml version="1.0" encoding="UTF-8" standalone="no" ?>
<!DOCTYPE svg PUBLIC "-//W3C//DTD SVG 1.1//EN" "http://www.w3.org/Graphics/SVG/1.1/DTD/svg11.dtd">
<svg xmlns="http://www.w3.org/2000/svg" xmlns:xlink="http://www.w3.org/1999/xlink" version="1.1" width="500" height="500" viewBox="0 0 500 500" xml:space="preserve">
<desc>Created with Fabric.js 4.6.0</desc>
<defs>
</defs>
<g transform="matrix(11.18 0 0 11.18 252.53 388.49)" id="xhmfMTc_K2m2LovU10cpG"  >
<path style="stroke: none; stroke-width: 1; stroke-dasharray: none; stroke-linecap: butt; stroke-dashoffset: 0; stroke-linejoin: miter; stroke-miterlimit: 4; fill: rgb(151,204,239); fill-rule: nonzero; opacity: 1;" vector-effect="non-scaling-stroke"  transform=" translate(-25.07, -50.36)" d="M 46.13 43.71 L 4 43.71 C 3.73478 43.71 3.48043 43.8153 3.29289 44.0029 C 3.10536 44.1904 3 44.4447 3 44.71 L 3 53 C 3 54.0608 3.42143 55.0782 4.17157 55.8284 C 4.92172 56.5785 5.93913 57 7 57 L 43.13 57 C 44.1909 57 45.2083 56.5785 45.9584 55.8284 C 46.7086 55.0782 47.13 54.0608 47.13 53 L 47.13 44.71 C 47.13 44.4447 47.0246 44.1904 46.8371 44.0029 C 46.6496 43.8153 46.3952 43.71 46.13 43.71 Z" stroke-linecap="round" />
</g>
<g transform="matrix(11.18 0 0 11.18 252.53 304.34)" id="uGAEjdd64eYjRggcPF0Da"  >
<path style="stroke: none; stroke-width: 1; stroke-dasharray: none; stroke-linecap: butt; stroke-dashoffset: 0; stroke-linejoin: miter; stroke-miterlimit: 4; fill: rgb(0,153,214); fill-rule: nonzero; opacity: 1;" vector-effect="non-scaling-stroke"  transform=" translate(-25.06, -42.83)" d="M 46.84 43.9999 L 43.08 40.2399 C 42.987 40.1462 42.8764 40.0718 42.7546 40.021 C 42.6327 39.9702 42.502 39.9441 42.37 39.9441 C 42.238 39.9441 42.1073 39.9702 41.9854 40.021 C 41.8636 40.0718 41.753 40.1462 41.66 40.2399 C 41.5159 40.388 41.4212 40.5772 41.3889 40.7813 C 41.3567 40.9854 41.3885 41.1946 41.48 41.3799 L 8.64999 41.3799 C 8.74147 41.1946 8.77328 40.9854 8.74104 40.7813 C 8.70881 40.5772 8.61412 40.388 8.46999 40.2399 C 8.37702 40.1462 8.26642 40.0718 8.14456 40.021 C 8.0227 39.9702 7.892 39.9441 7.75999 39.9441 C 7.62798 39.9441 7.49727 39.9702 7.37541 40.021 C 7.25355 40.0718 7.14295 40.1462 7.04999 40.2399 L 3.28999 43.9999 C 3.14896 44.1398 3.05278 44.3185 3.01371 44.5132 C 2.97464 44.708 2.99445 44.9099 3.07062 45.0934 C 3.14678 45.2768 3.27585 45.4334 3.44137 45.5432 C 3.60689 45.653 3.80136 45.711 3.99999 45.7099 L 46.13 45.7099 C 46.3263 45.7097 46.5182 45.6518 46.6818 45.5433 C 46.8454 45.4349 46.9734 45.2806 47.05 45.0999 C 47.1287 44.9165 47.1508 44.7138 47.1134 44.5177 C 47.076 44.3217 46.9808 44.1414 46.84 43.9999 L 46.84 43.9999 Z" stroke-linecap="round" />
</g>
<g transform="matrix(11.18 0 0 11.18 252.53 220.53)" id="0xKxujrzir4ZzRmrLfFrL"  >
<path style="stroke: none; stroke-width: 1; stroke-dasharray: none; stroke-linecap: butt; stroke-dashoffset: 0; stroke-linejoin: miter; stroke-miterlimit: 4; fill: rgb(151,204,239); fill-rule: nonzero; opacity: 1;" vector-effect="non-scaling-stroke"  transform=" translate(-25.07, -35.33)" d="M 46.13 28.6699 L 4 28.6699 C 3.73478 28.6699 3.48043 28.7753 3.29289 28.9628 C 3.10536 29.1504 3 29.4047 3 29.6699 L 3 37.9999 C 3 39.0608 3.42143 40.0782 4.17157 40.8283 C 4.92172 41.5785 5.93913 41.9999 7 41.9999 L 43.13 41.9999 C 44.1909 41.9999 45.2083 41.5785 45.9584 40.8283 C 46.7086 40.0782 47.13 39.0608 47.13 37.9999 L 47.13 29.6699 C 47.13 29.4047 47.0246 29.1504 46.8371 28.9628 C 46.6496 28.7753 46.3952 28.6699 46.13 28.6699 Z" stroke-linecap="round" />
</g>
<g transform="matrix(11.18 0 0 11.18 252.64 102.85)" id="TY12xXQULHkVEx9T3J3fn"  >
<path style="stroke: none; stroke-width: 1; stroke-dasharray: none; stroke-linecap: butt; stroke-dashoffset: 0; stroke-linejoin: miter; stroke-miterlimit: 4; fill: rgb(0,153,214); fill-rule: nonzero; opacity: 1;" vector-effect="non-scaling-stroke"  transform=" translate(-25.07, -24.8)" d="M 46.84 28.9999 L 37.72 19.8799 C 37.4178 19.5783 37.0592 19.3391 36.6645 19.1761 C 36.2699 19.0131 35.847 18.9294 35.42 18.9299 L 14.72 18.9299 C 13.8548 18.9296 13.0246 19.271 12.41 19.8799 L 3.28999 28.9999 C 3.16208 29.1415 3.07732 29.3166 3.04571 29.5048 C 3.01411 29.6929 3.03697 29.8861 3.11161 30.0617 C 3.18625 30.2373 3.30955 30.3878 3.46696 30.4956 C 3.62437 30.6034 3.80932 30.6638 3.99999 30.6699 L 46.13 30.6699 C 46.3274 30.6689 46.5201 30.6095 46.6838 30.4992 C 46.8476 30.3889 46.975 30.2326 47.05 30.0499 C 47.1181 29.873 47.1346 29.6804 47.0974 29.4945 C 47.0602 29.3086 46.9709 29.137 46.84 28.9999 Z" stroke-linecap="round" />
</g>
<g transform="matrix(11.18 0 0 11.18 96.86 384.47)" id="HrU5LaAy3zWV1l15qz1QU"  >
<path style="stroke: none; stroke-width: 1; stroke-dasharray: none; stroke-linecap: butt; stroke-dashoffset: 0; stroke-linejoin: miter; stroke-miterlimit: 4; fill: rgb(39,89,150); fill-rule: nonzero; opacity: 1;" vector-effect="non-scaling-stroke"  transform=" translate(-11.13, -50)" d="M 12.28 49 L 10 49 C 9.73478 49 9.48043 49.1054 9.29289 49.2929 C 9.10536 49.4804 9 49.7348 9 50 C 9 50.2652 9.10536 50.5196 9.29289 50.7071 C 9.48043 50.8946 9.73478 51 10 51 L 12.26 51 C 12.5252 51 12.7796 50.8946 12.9671 50.7071 C 13.1546 50.5196 13.26 50.2652 13.26 50 C 13.26 49.7348 13.1546 49.4804 12.9671 49.2929 C 12.7796 49.1054 12.5252 49 12.26 49 L 12.28 49 Z" stroke-linecap="round" />
</g>
<g transform="matrix(11.18 0 0 11.18 190.4 384.47)" id="KiJXfPFVAB2rrAVL7lZpc"  >
<path style="stroke: none; stroke-width: 1; stroke-dasharray: none; stroke-linecap: butt; stroke-dashoffset: 0; stroke-linejoin: miter; stroke-miterlimit: 4; fill: rgb(39,89,150); fill-rule: nonzero; opacity: 1;" vector-effect="non-scaling-stroke"  transform=" translate(-19.5, -50)" d="M 23.08 49 L 16 49 C 15.7348 49 15.4804 49.1054 15.2929 49.2929 C 15.1054 49.4804 15 49.7348 15 50 C 15 50.2652 15.1054 50.5196 15.2929 50.7071 C 15.4804 50.8946 15.7348 51 16 51 L 23 51 C 23.2652 51 23.5196 50.8946 23.7071 50.7071 C 23.8946 50.5196 24 50.2652 24 50 C 24 49.7348 23.8946 49.4804 23.7071 49.2929 C 23.5196 49.1054 23.2652 49 23 49 L 23.08 49 Z" stroke-linecap="round" />
</g>
<g transform="matrix(11.18 0 0 11.18 96.86 216.06)" id="zlgyFrr-0SJ_TLwE6qqeC"  >
<path style="stroke: none; stroke-width: 1; stroke-dasharray: none; stroke-linecap: butt; stroke-dashoffset: 0; stroke-linejoin: miter; stroke-miterlimit: 4; fill: rgb(39,89,150); fill-rule: nonzero; opacity: 1;" vector-effect="non-scaling-stroke"  transform=" translate(-11.13, -34.93)" d="M 12.28 33.9299 L 10 33.9299 C 9.73478 33.9299 9.48043 34.0353 9.29289 34.2228 C 9.10536 34.4104 9 34.6647 9 34.9299 C 9 35.1951 9.10536 35.4495 9.29289 35.637 C 9.48043 35.8246 9.73478 35.9299 10 35.9299 L 12.26 35.9299 C 12.5252 35.9299 12.7796 35.8246 12.9671 35.637 C 13.1546 35.4495 13.26 35.1951 13.26 34.9299 C 13.26 34.6647 13.1546 34.4104 12.9671 34.2228 C 12.7796 34.0353 12.5252 33.9299 12.26 33.9299 L 12.28 33.9299 Z" stroke-linecap="round" />
</g>
<g transform="matrix(11.18 0 0 11.18 190.4 216.06)" id="PQvLU2qh2oyqqsjPQlWVO"  >
<path style="stroke: none; stroke-width: 1; stroke-dasharray: none; stroke-linecap: butt; stroke-dashoffset: 0; stroke-linejoin: miter; stroke-miterlimit: 4; fill: rgb(39,89,150); fill-rule: nonzero; opacity: 1;" vector-effect="non-scaling-stroke"  transform=" translate(-19.5, -34.93)" d="M 16 35.9299 L 23 35.9299 C 23.2652 35.9299 23.5196 35.8246 23.7071 35.637 C 23.8946 35.4495 24 35.1951 24 34.9299 C 24 34.6647 23.8946 34.4104 23.7071 34.2228 C 23.5196 34.0353 23.2652 33.9299 23 33.9299 L 16 33.9299 C 15.7348 33.9299 15.4804 34.0353 15.2929 34.2228 C 15.1054 34.4104 15 34.6647 15 34.9299 C 15 35.1951 15.1054 35.4495 15.2929 35.637 C 15.4804 35.8246 15.7348 35.9299 16 35.9299 L 16 35.9299 Z" stroke-linecap="round" />
</g>
</svg>