<?xml version="1.0" encoding="UTF-8" standalone="no" ?>
<!DOCTYPE svg PUBLIC "-//W3C//DTD SVG 1.1//EN" "http://www.w3.org/Graphics/SVG/1.1/DTD/svg11.dtd">
<svg xmlns="http://www.w3.org/2000/svg" xmlns:xlink="http://www.w3.org/1999/xlink" version="1.1" width="500" height="500" viewBox="0 0 500 500" xml:space="preserve">
<desc>Created with Fabric.js 4.6.0</desc>
<defs>
</defs>
<g transform="matrix(0.95 0 0 0.95 177.09 322.92)" id="S3xgjtkijpKRxD6Gpxjrl"  >
<path style="stroke: none; stroke-width: 1; stroke-dasharray: none; stroke-linecap: butt; stroke-dashoffset: 0; stroke-linejoin: miter; stroke-miterlimit: 4; fill: rgb(223,231,244); fill-rule: nonzero; opacity: 1;" vector-effect="non-scaling-stroke"  transform=" translate(-179.26, -332.75)" d="M 214.969 318.25 L 164.759 368.47 C 161.82899999999998 371.40000000000003 157.98899999999998 372.86 154.149 372.86 C 150.30900000000003 372.86 146.469 371.40000000000003 143.539 368.47 C 137.689 362.61 137.689 353.11 143.539 347.25 L 193.749 297.03 C 199.609 291.17999999999995 209.10899999999998 291.17999999999995 214.969 297.03 L 214.969 297.03999999999996 C 220.819 302.9 220.829 312.39 214.969 318.24999999999994 z" stroke-linecap="round" />
</g>
<g transform="matrix(0.95 0 0 0.95 179.17 325.01)" id="Akfa3RirDGt7Lh749ud8t"  >
<path style="stroke: none; stroke-width: 1; stroke-dasharray: none; stroke-linecap: butt; stroke-dashoffset: 0; stroke-linejoin: miter; stroke-miterlimit: 4; fill: rgb(199,207,225); fill-rule: nonzero; opacity: 1;" vector-effect="non-scaling-stroke"  transform=" translate(-181.45, -334.95)" d="M 214.969 318.25 L 164.759 368.47 C 161.82899999999998 371.40000000000003 157.98899999999998 372.86 154.149 372.86 C 150.30900000000003 372.86 146.469 371.40000000000003 143.539 368.47 L 214.969 297.04 C 220.819 302.90000000000003 220.829 312.39000000000004 214.969 318.25 z" stroke-linecap="round" />
</g>
<g transform="matrix(0.95 0 0 0.95 316.1 183.9)" id="WMtoIWSRcX8hU5l-Oeqew"  >
<path style="stroke: none; stroke-width: 1; stroke-dasharray: none; stroke-linecap: butt; stroke-dashoffset: 0; stroke-linejoin: miter; stroke-miterlimit: 4; fill: rgb(255,232,106); fill-rule: nonzero; opacity: 1;" vector-effect="non-scaling-stroke"  transform=" translate(-325.57, -186.43)" d="M 496.999 186.43 C 496.999 280.95 420.09900000000005 357.86 325.569 357.86 C 290.759 357.86 257.22900000000004 347.47 228.61900000000003 327.82 C 219.87900000000002 321.82 211.77900000000002 315.09 204.34900000000002 307.65999999999997 C 196.92900000000003 300.22999999999996 190.17900000000003 292.11999999999995 184.17900000000003 283.36999999999995 C 164.52900000000002 254.76999999999995 154.13900000000004 221.23999999999995 154.13900000000004 186.42999999999995 C 154.13900000000004 91.89999999999995 231.04900000000004 14.999999999999943 325.5690000000001 14.999999999999943 C 372.83900000000006 14.999999999999943 415.69900000000007 34.22999999999995 446.72900000000004 65.27999999999994 C 477.77900000000005 96.31999999999994 496.999 139.16999999999996 496.999 186.42999999999995 z" stroke-linecap="round" />
</g>
<g transform="matrix(0.95 0 0 0.95 339.95 207.78)" id="YWCmQ8FdD8pOvBRn9mcdo"  >
<path style="stroke: none; stroke-width: 1; stroke-dasharray: none; stroke-linecap: butt; stroke-dashoffset: 0; stroke-linejoin: miter; stroke-miterlimit: 4; fill: rgb(255,232,106); fill-rule: nonzero; opacity: 1;" vector-effect="non-scaling-stroke"  transform=" translate(-350.67, -211.57)" d="M 496.999 186.43 C 496.999 280.95 420.09900000000005 357.86 325.569 357.86 C 290.759 357.86 257.22900000000004 347.47 228.61900000000003 327.82 C 219.87900000000002 321.82 211.77900000000002 315.09 204.34900000000002 307.65999999999997 L 446.72900000000004 65.27999999999997 C 477.77900000000005 96.31999999999996 496.999 139.16999999999996 496.999 186.42999999999998 z" stroke-linecap="round" />
</g>
<g transform="matrix(0.95 0 0 0.95 263.17 130.97)" id="JSTYTE0n7vwyf5fM4kMRL"  >
<path style="stroke: none; stroke-width: 1; stroke-dasharray: none; stroke-linecap: butt; stroke-dashoffset: 0; stroke-linejoin: miter; stroke-miterlimit: 4; fill: rgb(240,247,255); fill-rule: nonzero; opacity: 1;" vector-effect="non-scaling-stroke"  transform=" translate(-269.86, -130.72)" d="M 199.149 186.44 C 199.149 194.724 205.865 201.44 214.149 201.44 C 222.433 201.44 229.149 194.724 229.149 186.44 C 229.149 133.268 272.407 90.00999999999999 325.579 90.00999999999999 C 333.863 90.00999999999999 340.579 83.294 340.579 75.00999999999999 C 340.579 66.72599999999998 333.863 60.00999999999999 325.579 60.00999999999999 C 255.865 60.00999999999999 199.149 116.726 199.149 186.44 z" stroke-linecap="round" />
</g>
<g transform="matrix(0.95 0 0 0.95 316.1 183.9)" id="TOZqO6qXzRI1-5AkZMapD"  >
<path style="stroke: none; stroke-width: 1; stroke-dasharray: none; stroke-linecap: butt; stroke-dashoffset: 0; stroke-linejoin: miter; stroke-miterlimit: 4; fill: rgb(56,68,92); fill-rule: nonzero; opacity: 1;" vector-effect="non-scaling-stroke"  transform=" translate(-325.57, -186.43)" d="M 457.339 54.67 C 423.589 20.910000000000004 376.979 0 325.579 0 C 222.769 0 139.139 83.63 139.139 186.42 C 139.139 224.29 150.43900000000002 260.75 171.80900000000003 291.85 C 178.33900000000003 301.36 185.66900000000004 310.19 193.74900000000002 318.26000000000005 C 201.82900000000004 326.35 210.639 333.66 220.139 340.19000000000005 C 251.24900000000002 361.56000000000006 287.709 372.86000000000007 325.579 372.86000000000007 C 428.369 372.86000000000007 511.999 289.2300000000001 511.999 186.42000000000007 C 511.999 135.0300000000001 491.089 88.43000000000008 457.33900000000006 54.67000000000007 z M 325.579 342.86 C 293.799 342.86 263.219 333.39 237.11900000000003 315.46000000000004 C 229.13900000000004 309.98 221.74900000000002 303.83000000000004 214.96900000000002 297.04 C 208.17900000000003 290.27000000000004 202.01900000000003 282.86 196.53900000000002 274.87 C 178.609 248.78 169.139 218.2 169.139 186.42000000000002 C 169.139 100.17000000000002 239.31900000000002 30.00000000000003 325.579 30.00000000000003 C 368.709 30.00000000000003 407.819 47.550000000000026 436.129 75.88000000000002 C 464.459 104.20000000000002 481.999 143.31000000000003 481.999 186.42000000000002 C 481.999 272.68 411.829 342.86 325.57900000000006 342.86 z" stroke-linecap="round" />
</g>
<g transform="matrix(0.95 0 0 0.95 342.04 209.86)" id="yN8t9eVSZOG_mFNwVL8Pt"  >
<path style="stroke: none; stroke-width: 1; stroke-dasharray: none; stroke-linecap: butt; stroke-dashoffset: 0; stroke-linejoin: miter; stroke-miterlimit: 4; fill: rgb(38,47,64); fill-rule: nonzero; opacity: 1;" vector-effect="non-scaling-stroke"  transform=" translate(-352.87, -213.76)" d="M 511.999 186.42 C 511.999 289.23 428.369 372.86 325.57900000000006 372.86 C 287.70900000000006 372.86 251.24900000000008 361.56 220.13900000000007 340.19 C 210.63900000000007 333.66 201.82900000000006 326.35 193.74900000000008 318.26 L 214.96900000000008 297.03999999999996 C 221.74900000000008 303.83 229.13900000000007 309.97999999999996 237.11900000000009 315.46 C 263.2190000000001 333.39 293.7990000000001 342.85999999999996 325.57900000000006 342.85999999999996 C 411.82900000000006 342.85999999999996 481.999 272.67999999999995 481.999 186.41999999999996 C 481.999 143.30999999999995 464.459 104.19999999999996 436.129 75.87999999999995 L 457.339 54.66999999999995 C 491.089 88.42999999999995 511.999 135.02999999999994 511.999 186.41999999999996 z" stroke-linecap="round" />
</g>
<g transform="matrix(0.95 0 0 0.95 97.2 402.8)" id="cCCr0HQoOt3w8bgei1vtp"  >
<path style="stroke: none; stroke-width: 1; stroke-dasharray: none; stroke-linecap: butt; stroke-dashoffset: 0; stroke-linejoin: miter; stroke-miterlimit: 4; fill: rgb(56,68,92); fill-rule: nonzero; opacity: 1;" vector-effect="non-scaling-stroke"  transform=" translate(-95.18, -416.82)" d="M 185.959 389.67 L 68.029 507.61 C 62.166 513.4730000000001 52.663999999999994 513.455 46.818999999999996 507.61 L 25.608999999999995 486.40000000000003 L 4.388999999999996 465.18000000000006 C -1.4490000000000043 459.34200000000004 -1.4740000000000046 449.8330000000001 4.388999999999996 443.9700000000001 L 122.329 326.0300000000001 C 125.139 323.2200000000001 128.94899999999998 321.6400000000001 132.929 321.6400000000001 C 136.90900000000002 321.6400000000001 140.729 323.2200000000001 143.539 326.0300000000001 L 164.759 347.2500000000001 L 185.95899999999997 368.4600000000001 C 191.819 374.3200000000001 191.819 383.8200000000001 185.95899999999997 389.6700000000001 z" stroke-linecap="round" />
</g>
<g transform="matrix(0.95 0 0 0.95 109.36 414.97)" id="KW18W9fR-g2ueyhNGXLG5"  >
<path style="stroke: none; stroke-width: 1; stroke-dasharray: none; stroke-linecap: butt; stroke-dashoffset: 0; stroke-linejoin: miter; stroke-miterlimit: 4; fill: rgb(38,47,64); fill-rule: nonzero; opacity: 1;" vector-effect="non-scaling-stroke"  transform=" translate(-107.98, -429.63)" d="M 185.959 389.67 L 68.029 507.61 C 62.166 513.4730000000001 52.663999999999994 513.455 46.818999999999996 507.61 L 25.608999999999995 486.40000000000003 L 164.75900000000001 347.25 L 185.959 368.46 C 191.81900000000002 374.32 191.81900000000002 383.82 185.959 389.66999999999996 z" stroke-linecap="round" />
</g>
<g transform="matrix(0.95 0 0 0.95 177.09 322.92)" id="huv44EB8De8yXYdjKLXde"  >
<path style="stroke: none; stroke-width: 1; stroke-dasharray: none; stroke-linecap: butt; stroke-dashoffset: 0; stroke-linejoin: miter; stroke-miterlimit: 4; fill: rgb(223,231,244); fill-rule: nonzero; opacity: 1;" vector-effect="non-scaling-stroke"  transform=" translate(-179.26, -332.75)" d="M 214.969 318.25 L 164.759 368.47 C 161.82899999999998 371.40000000000003 157.98899999999998 372.86 154.149 372.86 C 150.30900000000003 372.86 146.469 371.40000000000003 143.539 368.47 C 137.689 362.61 137.689 353.11 143.539 347.25 L 193.749 297.03 C 199.609 291.17999999999995 209.10899999999998 291.17999999999995 214.969 297.03 L 214.969 297.03999999999996 C 220.819 302.9 220.829 312.39 214.969 318.24999999999994 z" stroke-linecap="round" />
</g>
<g transform="matrix(0.95 0 0 0.95 179.17 325.01)" id="PMv0X9w-Xhh5W32ZhVwd3"  >
<path style="stroke: none; stroke-width: 1; stroke-dasharray: none; stroke-linecap: butt; stroke-dashoffset: 0; stroke-linejoin: miter; stroke-miterlimit: 4; fill: rgb(199,207,225); fill-rule: nonzero; opacity: 1;" vector-effect="non-scaling-stroke"  transform=" translate(-181.45, -334.95)" d="M 214.969 318.25 L 164.759 368.47 C 161.82899999999998 371.40000000000003 157.98899999999998 372.86 154.149 372.86 C 150.30900000000003 372.86 146.469 371.40000000000003 143.539 368.47 L 214.969 297.04 C 220.819 302.90000000000003 220.829 312.39000000000004 214.969 318.25 z" stroke-linecap="round" />
</g>
<g transform="matrix(0.95 0 0 0.95 316.1 183.9)" id="t2ESczQg462XgONldK_k7"  >
<path style="stroke: none; stroke-width: 1; stroke-dasharray: none; stroke-linecap: butt; stroke-dashoffset: 0; stroke-linejoin: miter; stroke-miterlimit: 4; fill: rgb(255,232,106); fill-rule: nonzero; opacity: 1;" vector-effect="non-scaling-stroke"  transform=" translate(-325.57, -186.43)" d="M 496.999 186.43 C 496.999 280.95 420.09900000000005 357.86 325.569 357.86 C 290.759 357.86 257.22900000000004 347.47 228.61900000000003 327.82 C 219.87900000000002 321.82 211.77900000000002 315.09 204.34900000000002 307.65999999999997 C 196.92900000000003 300.22999999999996 190.17900000000003 292.11999999999995 184.17900000000003 283.36999999999995 C 164.52900000000002 254.76999999999995 154.13900000000004 221.23999999999995 154.13900000000004 186.42999999999995 C 154.13900000000004 91.89999999999995 231.04900000000004 14.999999999999943 325.5690000000001 14.999999999999943 C 372.83900000000006 14.999999999999943 415.69900000000007 34.22999999999995 446.72900000000004 65.27999999999994 C 477.77900000000005 96.31999999999994 496.999 139.16999999999996 496.999 186.42999999999995 z" stroke-linecap="round" />
</g>
<g transform="matrix(0.95 0 0 0.95 339.95 207.78)" id="rzNlhVoc6yTcDDR-p20L7"  >
<path style="stroke: none; stroke-width: 1; stroke-dasharray: none; stroke-linecap: butt; stroke-dashoffset: 0; stroke-linejoin: miter; stroke-miterlimit: 4; fill: rgb(255,232,106); fill-rule: nonzero; opacity: 1;" vector-effect="non-scaling-stroke"  transform=" translate(-350.67, -211.57)" d="M 496.999 186.43 C 496.999 280.95 420.09900000000005 357.86 325.569 357.86 C 290.759 357.86 257.22900000000004 347.47 228.61900000000003 327.82 C 219.87900000000002 321.82 211.77900000000002 315.09 204.34900000000002 307.65999999999997 L 446.72900000000004 65.27999999999997 C 477.77900000000005 96.31999999999996 496.999 139.16999999999996 496.999 186.42999999999998 z" stroke-linecap="round" />
</g>
<g transform="matrix(0.95 0 0 0.95 263.17 130.97)" id="kjRYCuBauIq3t525hb8gR"  >
<path style="stroke: none; stroke-width: 1; stroke-dasharray: none; stroke-linecap: butt; stroke-dashoffset: 0; stroke-linejoin: miter; stroke-miterlimit: 4; fill: rgb(240,247,255); fill-rule: nonzero; opacity: 1;" vector-effect="non-scaling-stroke"  transform=" translate(-269.86, -130.72)" d="M 199.149 186.44 C 199.149 194.724 205.865 201.44 214.149 201.44 C 222.433 201.44 229.149 194.724 229.149 186.44 C 229.149 133.268 272.407 90.00999999999999 325.579 90.00999999999999 C 333.863 90.00999999999999 340.579 83.294 340.579 75.00999999999999 C 340.579 66.72599999999998 333.863 60.00999999999999 325.579 60.00999999999999 C 255.865 60.00999999999999 199.149 116.726 199.149 186.44 z" stroke-linecap="round" />
</g>
<g transform="matrix(0.95 0 0 0.95 316.1 183.9)" id="FxmePVJ3VX7xcCeuh_otM"  >
<path style="stroke: none; stroke-width: 1; stroke-dasharray: none; stroke-linecap: butt; stroke-dashoffset: 0; stroke-linejoin: miter; stroke-miterlimit: 4; fill: rgb(56,68,92); fill-rule: nonzero; opacity: 1;" vector-effect="non-scaling-stroke"  transform=" translate(-325.57, -186.43)" d="M 457.339 54.67 C 423.589 20.910000000000004 376.979 0 325.579 0 C 222.769 0 139.139 83.63 139.139 186.42 C 139.139 224.29 150.43900000000002 260.75 171.80900000000003 291.85 C 178.33900000000003 301.36 185.66900000000004 310.19 193.74900000000002 318.26000000000005 C 201.82900000000004 326.35 210.639 333.66 220.139 340.19000000000005 C 251.24900000000002 361.56000000000006 287.709 372.86000000000007 325.579 372.86000000000007 C 428.369 372.86000000000007 511.999 289.2300000000001 511.999 186.42000000000007 C 511.999 135.0300000000001 491.089 88.43000000000008 457.33900000000006 54.67000000000007 z M 325.579 342.86 C 293.799 342.86 263.219 333.39 237.11900000000003 315.46000000000004 C 229.13900000000004 309.98 221.74900000000002 303.83000000000004 214.96900000000002 297.04 C 208.17900000000003 290.27000000000004 202.01900000000003 282.86 196.53900000000002 274.87 C 178.609 248.78 169.139 218.2 169.139 186.42000000000002 C 169.139 100.17000000000002 239.31900000000002 30.00000000000003 325.579 30.00000000000003 C 368.709 30.00000000000003 407.819 47.550000000000026 436.129 75.88000000000002 C 464.459 104.20000000000002 481.999 143.31000000000003 481.999 186.42000000000002 C 481.999 272.68 411.829 342.86 325.57900000000006 342.86 z" stroke-linecap="round" />
</g>
<g transform="matrix(0.95 0 0 0.95 342.04 209.86)" id="szf3-iK3t6LSFxoQT4odO"  >
<path style="stroke: none; stroke-width: 1; stroke-dasharray: none; stroke-linecap: butt; stroke-dashoffset: 0; stroke-linejoin: miter; stroke-miterlimit: 4; fill: rgb(38,47,64); fill-rule: nonzero; opacity: 1;" vector-effect="non-scaling-stroke"  transform=" translate(-352.87, -213.76)" d="M 511.999 186.42 C 511.999 289.23 428.369 372.86 325.57900000000006 372.86 C 287.70900000000006 372.86 251.24900000000008 361.56 220.13900000000007 340.19 C 210.63900000000007 333.66 201.82900000000006 326.35 193.74900000000008 318.26 L 214.96900000000008 297.03999999999996 C 221.74900000000008 303.83 229.13900000000007 309.97999999999996 237.11900000000009 315.46 C 263.2190000000001 333.39 293.7990000000001 342.85999999999996 325.57900000000006 342.85999999999996 C 411.82900000000006 342.85999999999996 481.999 272.67999999999995 481.999 186.41999999999996 C 481.999 143.30999999999995 464.459 104.19999999999996 436.129 75.87999999999995 L 457.339 54.66999999999995 C 491.089 88.42999999999995 511.999 135.02999999999994 511.999 186.41999999999996 z" stroke-linecap="round" />
</g>
<g transform="matrix(0.95 0 0 0.95 97.2 402.8)" id="3V2bDRLSUbEV6K11y04oN"  >
<path style="stroke: none; stroke-width: 1; stroke-dasharray: none; stroke-linecap: butt; stroke-dashoffset: 0; stroke-linejoin: miter; stroke-miterlimit: 4; fill: rgb(56,68,92); fill-rule: nonzero; opacity: 1;" vector-effect="non-scaling-stroke"  transform=" translate(-95.18, -416.82)" d="M 185.959 389.67 L 68.029 507.61 C 62.166 513.4730000000001 52.663999999999994 513.455 46.818999999999996 507.61 L 25.608999999999995 486.40000000000003 L 4.388999999999996 465.18000000000006 C -1.4490000000000043 459.34200000000004 -1.4740000000000046 449.8330000000001 4.388999999999996 443.9700000000001 L 122.329 326.0300000000001 C 125.139 323.2200000000001 128.94899999999998 321.6400000000001 132.929 321.6400000000001 C 136.90900000000002 321.6400000000001 140.729 323.2200000000001 143.539 326.0300000000001 L 164.759 347.2500000000001 L 185.95899999999997 368.4600000000001 C 191.819 374.3200000000001 191.819 383.8200000000001 185.95899999999997 389.6700000000001 z" stroke-linecap="round" />
</g>
<g transform="matrix(0.95 0 0 0.95 109.36 414.97)" id="sRkSmRzisIqoweJN64D8k"  >
<path style="stroke: none; stroke-width: 1; stroke-dasharray: none; stroke-linecap: butt; stroke-dashoffset: 0; stroke-linejoin: miter; stroke-miterlimit: 4; fill: rgb(38,47,64); fill-rule: nonzero; opacity: 1;" vector-effect="non-scaling-stroke"  transform=" translate(-107.98, -429.63)" d="M 185.959 389.67 L 68.029 507.61 C 62.166 513.4730000000001 52.663999999999994 513.455 46.818999999999996 507.61 L 25.608999999999995 486.40000000000003 L 164.75900000000001 347.25 L 185.959 368.46 C 191.81900000000002 374.32 191.81900000000002 383.82 185.959 389.66999999999996 z" stroke-linecap="round" />
</g>
<g transform="matrix(0.95 0 0 0.95 177.09 322.92)" id="BhkKDe41jE9hRI7Clh1eA"  >
<path style="stroke: none; stroke-width: 1; stroke-dasharray: none; stroke-linecap: butt; stroke-dashoffset: 0; stroke-linejoin: miter; stroke-miterlimit: 4; fill: rgb(223,231,244); fill-rule: nonzero; opacity: 1;" vector-effect="non-scaling-stroke"  transform=" translate(-179.26, -332.75)" d="M 214.969 318.25 L 164.759 368.47 C 161.82899999999998 371.40000000000003 157.98899999999998 372.86 154.149 372.86 C 150.30900000000003 372.86 146.469 371.40000000000003 143.539 368.47 C 137.689 362.61 137.689 353.11 143.539 347.25 L 193.749 297.03 C 199.609 291.17999999999995 209.10899999999998 291.17999999999995 214.969 297.03 L 214.969 297.03999999999996 C 220.819 302.9 220.829 312.39 214.969 318.24999999999994 z" stroke-linecap="round" />
</g>
<g transform="matrix(0.95 0 0 0.95 179.17 325.01)" id="VAhUrlJsBF2JzSoMJWfYy"  >
<path style="stroke: none; stroke-width: 1; stroke-dasharray: none; stroke-linecap: butt; stroke-dashoffset: 0; stroke-linejoin: miter; stroke-miterlimit: 4; fill: rgb(199,207,225); fill-rule: nonzero; opacity: 1;" vector-effect="non-scaling-stroke"  transform=" translate(-181.45, -334.95)" d="M 214.969 318.25 L 164.759 368.47 C 161.82899999999998 371.40000000000003 157.98899999999998 372.86 154.149 372.86 C 150.30900000000003 372.86 146.469 371.40000000000003 143.539 368.47 L 214.969 297.04 C 220.819 302.90000000000003 220.829 312.39000000000004 214.969 318.25 z" stroke-linecap="round" />
</g>
<g transform="matrix(0.95 0 0 0.95 316.1 183.9)" id="ntE5qNl6q7Cob2JUIt3s6"  >
<path style="stroke: none; stroke-width: 1; stroke-dasharray: none; stroke-linecap: butt; stroke-dashoffset: 0; stroke-linejoin: miter; stroke-miterlimit: 4; fill: rgb(190,147,212); fill-rule: nonzero; opacity: 1;" vector-effect="non-scaling-stroke"  transform=" translate(-325.57, -186.43)" d="M 496.999 186.43 C 496.999 280.95 420.09900000000005 357.86 325.569 357.86 C 290.759 357.86 257.22900000000004 347.47 228.61900000000003 327.82 C 219.87900000000002 321.82 211.77900000000002 315.09 204.34900000000002 307.65999999999997 C 196.92900000000003 300.22999999999996 190.17900000000003 292.11999999999995 184.17900000000003 283.36999999999995 C 164.52900000000002 254.76999999999995 154.13900000000004 221.23999999999995 154.13900000000004 186.42999999999995 C 154.13900000000004 91.89999999999995 231.04900000000004 14.999999999999943 325.5690000000001 14.999999999999943 C 372.83900000000006 14.999999999999943 415.69900000000007 34.22999999999995 446.72900000000004 65.27999999999994 C 477.77900000000005 96.31999999999994 496.999 139.16999999999996 496.999 186.42999999999995 z" stroke-linecap="round" />
</g>
<g transform="matrix(0.95 0 0 0.95 339.95 207.78)" id="xo-QczMj5uSNnj94ujFL4"  >
<path style="stroke: none; stroke-width: 1; stroke-dasharray: none; stroke-linecap: butt; stroke-dashoffset: 0; stroke-linejoin: miter; stroke-miterlimit: 4; fill: rgb(190,147,212); fill-rule: nonzero; opacity: 1;" vector-effect="non-scaling-stroke"  transform=" translate(-350.67, -211.57)" d="M 496.999 186.43 C 496.999 280.95 420.09900000000005 357.86 325.569 357.86 C 290.759 357.86 257.22900000000004 347.47 228.61900000000003 327.82 C 219.87900000000002 321.82 211.77900000000002 315.09 204.34900000000002 307.65999999999997 L 446.72900000000004 65.27999999999997 C 477.77900000000005 96.31999999999996 496.999 139.16999999999996 496.999 186.42999999999998 z" stroke-linecap="round" />
</g>
<g transform="matrix(0.95 0 0 0.95 263.17 130.97)" id="pQSPT0SFkSVKP2VZOU3jQ"  >
<path style="stroke: none; stroke-width: 1; stroke-dasharray: none; stroke-linecap: butt; stroke-dashoffset: 0; stroke-linejoin: miter; stroke-miterlimit: 4; fill: rgb(240,247,255); fill-rule: nonzero; opacity: 1;" vector-effect="non-scaling-stroke"  transform=" translate(-269.86, -130.72)" d="M 199.149 186.44 C 199.149 194.724 205.865 201.44 214.149 201.44 C 222.433 201.44 229.149 194.724 229.149 186.44 C 229.149 133.268 272.407 90.00999999999999 325.579 90.00999999999999 C 333.863 90.00999999999999 340.579 83.294 340.579 75.00999999999999 C 340.579 66.72599999999998 333.863 60.00999999999999 325.579 60.00999999999999 C 255.865 60.00999999999999 199.149 116.726 199.149 186.44 z" stroke-linecap="round" />
</g>
<g transform="matrix(0.95 0 0 0.95 316.1 183.9)" id="4aWs-TPoBguOFXUw0rfOM"  >
<path style="stroke: none; stroke-width: 1; stroke-dasharray: none; stroke-linecap: butt; stroke-dashoffset: 0; stroke-linejoin: miter; stroke-miterlimit: 4; fill: rgb(56,68,92); fill-rule: nonzero; opacity: 1;" vector-effect="non-scaling-stroke"  transform=" translate(-325.57, -186.43)" d="M 457.339 54.67 C 423.589 20.910000000000004 376.979 0 325.579 0 C 222.769 0 139.139 83.63 139.139 186.42 C 139.139 224.29 150.43900000000002 260.75 171.80900000000003 291.85 C 178.33900000000003 301.36 185.66900000000004 310.19 193.74900000000002 318.26000000000005 C 201.82900000000004 326.35 210.639 333.66 220.139 340.19000000000005 C 251.24900000000002 361.56000000000006 287.709 372.86000000000007 325.579 372.86000000000007 C 428.369 372.86000000000007 511.999 289.2300000000001 511.999 186.42000000000007 C 511.999 135.0300000000001 491.089 88.43000000000008 457.33900000000006 54.67000000000007 z M 325.579 342.86 C 293.799 342.86 263.219 333.39 237.11900000000003 315.46000000000004 C 229.13900000000004 309.98 221.74900000000002 303.83000000000004 214.96900000000002 297.04 C 208.17900000000003 290.27000000000004 202.01900000000003 282.86 196.53900000000002 274.87 C 178.609 248.78 169.139 218.2 169.139 186.42000000000002 C 169.139 100.17000000000002 239.31900000000002 30.00000000000003 325.579 30.00000000000003 C 368.709 30.00000000000003 407.819 47.550000000000026 436.129 75.88000000000002 C 464.459 104.20000000000002 481.999 143.31000000000003 481.999 186.42000000000002 C 481.999 272.68 411.829 342.86 325.57900000000006 342.86 z" stroke-linecap="round" />
</g>
<g transform="matrix(0.95 0 0 0.95 342.04 209.86)" id="8p3d4oRYc6xULy-TgZLvp"  >
<path style="stroke: none; stroke-width: 1; stroke-dasharray: none; stroke-linecap: butt; stroke-dashoffset: 0; stroke-linejoin: miter; stroke-miterlimit: 4; fill: rgb(38,47,64); fill-rule: nonzero; opacity: 1;" vector-effect="non-scaling-stroke"  transform=" translate(-352.87, -213.76)" d="M 511.999 186.42 C 511.999 289.23 428.369 372.86 325.57900000000006 372.86 C 287.70900000000006 372.86 251.24900000000008 361.56 220.13900000000007 340.19 C 210.63900000000007 333.66 201.82900000000006 326.35 193.74900000000008 318.26 L 214.96900000000008 297.03999999999996 C 221.74900000000008 303.83 229.13900000000007 309.97999999999996 237.11900000000009 315.46 C 263.2190000000001 333.39 293.7990000000001 342.85999999999996 325.57900000000006 342.85999999999996 C 411.82900000000006 342.85999999999996 481.999 272.67999999999995 481.999 186.41999999999996 C 481.999 143.30999999999995 464.459 104.19999999999996 436.129 75.87999999999995 L 457.339 54.66999999999995 C 491.089 88.42999999999995 511.999 135.02999999999994 511.999 186.41999999999996 z" stroke-linecap="round" />
</g>
<g transform="matrix(0.95 0 0 0.95 97.2 402.8)" id="nZ-_CoaS8XD8bW7iPN6QE"  >
<path style="stroke: none; stroke-width: 1; stroke-dasharray: none; stroke-linecap: butt; stroke-dashoffset: 0; stroke-linejoin: miter; stroke-miterlimit: 4; fill: rgb(56,68,92); fill-rule: nonzero; opacity: 1;" vector-effect="non-scaling-stroke"  transform=" translate(-95.18, -416.82)" d="M 185.959 389.67 L 68.029 507.61 C 62.166 513.4730000000001 52.663999999999994 513.455 46.818999999999996 507.61 L 25.608999999999995 486.40000000000003 L 4.388999999999996 465.18000000000006 C -1.4490000000000043 459.34200000000004 -1.4740000000000046 449.8330000000001 4.388999999999996 443.9700000000001 L 122.329 326.0300000000001 C 125.139 323.2200000000001 128.94899999999998 321.6400000000001 132.929 321.6400000000001 C 136.90900000000002 321.6400000000001 140.729 323.2200000000001 143.539 326.0300000000001 L 164.759 347.2500000000001 L 185.95899999999997 368.4600000000001 C 191.819 374.3200000000001 191.819 383.8200000000001 185.95899999999997 389.6700000000001 z" stroke-linecap="round" />
</g>
<g transform="matrix(0.95 0 0 0.95 109.36 414.97)" id="lWVIzBg0Cxnr2mNbar96B"  >
<path style="stroke: none; stroke-width: 1; stroke-dasharray: none; stroke-linecap: butt; stroke-dashoffset: 0; stroke-linejoin: miter; stroke-miterlimit: 4; fill: rgb(38,47,64); fill-rule: nonzero; opacity: 1;" vector-effect="non-scaling-stroke"  transform=" translate(-107.98, -429.63)" d="M 185.959 389.67 L 68.029 507.61 C 62.166 513.4730000000001 52.663999999999994 513.455 46.818999999999996 507.61 L 25.608999999999995 486.40000000000003 L 164.75900000000001 347.25 L 185.959 368.46 C 191.81900000000002 374.32 191.81900000000002 383.82 185.959 389.66999999999996 z" stroke-linecap="round" />
</g>
</svg>